/* XPM */
static char *_x_[] = {
/* columns rows colors chars-per-pixel */
"96 15 16 1",
", c #F2F0F4",
". c #E4E2E4",
"X c #D6D5D7",
"o c #C7C6C8",
"O c #BFBDC0",
"+ c #ABA9AC",
"@ c #9D9B9E",
"# c #8C8A8D",
"$ c #7A787B",
"% c #6E6C6F",
"& c #58565A",
"* c #4A484B",
"= c #3A383B",
"- c #262428",
"; c #171518",
": c #020003",
/* pixels */
"::::O:OO::@@:O:@#:++::O::&**&:=o=:::::::::::::;$$X$:OXo@:=O+:*X:X+$o;O.-+O@#o$:::::::::::::::-O+",
"::::o:--:OXX@,%@X*#-::-::+:;+:$,$:+:::::::::::$;O%o::O:O::O#:#o:X#XO$:+:#X#o:o:#::#:-$+OO+@#-:=@",
"::::#::::..+$.**o@o++::::o::O:-@-o,@::::O+:::;$:O:O::O%-:::o*+,-:Oo:o=$:o:o%Oo::::::o#;oO@;#o:o:",
"::::#::::@#:#.+:+++X+::::+::O:::::O::@:::::#:%;:$X$:+,,+:&o#::O%o$$o$#-:#o#+o&:#::+::-#:::#-::@:",
":::::::::::::o:::::::::::&**&::::::::@::::::::::::::::::::::::::::::::::::::::::::@:::::::::::::",
"=O$;,;XO+%X;Xo%XO&Xo*%X&o:oO,-:#Xo&$o::.&..=o%X%XO#%X$Xo#@O*O,+O:OO:,%:+@=@O;OooX:X&$;:&X:&@&:::",
"O+X*+&Xo@O::o:oXo=Xo=O::XOX:O:::OXo:O::oooo#OO:oo:oO:oO:oO%;:O:O:O#*@++@-,-*X*:+*:O:;$::O:::::::",
"OOo#+#o:Oo::O:oO::O::O*Oo:o:o:::OX+-o::o+OO#oo:OXo%O:OXX$:&+:o:o:O&+&X+$-,-:X:%$::o::$;:o:::::::",
"++O+:OXo#$o;Xo%XO&O::&X+O:OO,;*o@o-@X+*o:oO=.%X%o::$X#o;o+o@:O:#O#;,;X%%@=@:o:,o+:O::;$:O:::::::",
"=O#:::::::::::::::::::::::::::::::::::::::::::::::::;*::::::::::::::::::::::::::::o&:::&o::::OOO",
"-%::::O:::::::o::::O-:::O:::#::::o::$X:::::::::::::::::::::::@::::::::::::::::::::+$:O:$+:::::::",
":::*O@XO#$o=#OX$O$O,;#OXXO:%X:%X:O@=:o:XoOXO:$o$XO##OX:XO.+:O,-OO:+;+@:@$@#+&%O,-:o::o::O:::::::",
":::#OXo:oo::o:oXoO:o:o:oOO::o::O:X+::O:oOOOO:o:Oo:oo:o:o:%$::O:oO:&@&#O#:,;@O:&%:O@::O::+;Oo@:::",
":::+OXXO#$o=#OX$O%:O:#OXOo:o,@:o:o%&:@+OoOOo:$o$XO##OX:O:+O::O;+X:;,;##@#%#=+:,o;:o::o::O:::::::",
":::::::::::::::::::::-@@::::::++::::::::::::::::o::::O:::::::::::::::::::::O*:::::#$:O:$#:::::::"
};
