/* XPM */
static char *_x_[] = {
/* columns rows colors chars-per-pixel */
"128 18 8 1",
"  c #e8e7e9",
". c #d5d3d6",
"X c #b9b8ba",
"o c #99979a",
"O c #7a787b",
"+ c #575659",
"@ c #353337",
"# c #020003",
/* pixels */
"#####.###..##oo##.##oo###XX##.###+O##O+#+.+###################o#O.O##X #.Xo#OXX##+ # XO#+.X#X..#XXX#o.O#####################+XX#",
"#####.###@@#.  #o o#oX++# @##@###X####X#o o##X###############++# O.###.##@X##Xo#@O.#..+#.XO##OO#O.o#.#.##o###o##@oo#XXX#oO@##@X#",
"#####o###### ..#o +#+ .O.@X.#####.####.#@X@#X X######Xo######o##.#.###.#@X@###.#OX +##.#.# ##.##.#.#OX #########XO@#X.X#@O.##.##",
"#####o######Xo##o X##oXoO..o#####.####X######.###X#######o##O@##O.O##X o XX#O.o###.#X.O#OXo#+O##o.o#X.+##o###X###@O#####O@###X##",
"#################.###############+O##O+##########o###########################################################X##################",
"################################################################################################################################",
"@XXO# O# XX#+.X# .O# Xo# Xo#+.o#.#.#X X##X #.@X##.## O # @.#O.O# .o#O.O# Xo#oXo#X .#.#.#X@o@o@#.o+X@.#.#X. ## O#++##O ##+oo#####",
"XXX.@oX# .o# ###.#.# XO# XO#.### X ##.####.# .@##.##.X # O.#.#.#.#.#.#.# #.#XO###.## #.#O+.#OooX#.O#O.O##o+##.###o###.##########",
". # OX.#.#.#.###.#.#.###.###.O.#.# ##.####.# o+## ##.X.#.o.#.#.# .O#.#.#  O##+.##.##.#.#@oX#+.oo# o## ##Oo###.###++##.##########",
"XXX.X#o+ .o#+..# .O# Xo#.###+.X#.#.#X o#O.o# #.## XO.#.#.@ #O.O#.###O O#.#.#X.o##.##oXo## O#@XoOo@X@#.## XX##.####o##.##########",
"@oXO##################################################################+######################################.O#####O.##########",
"############################################################################################################################XXXX",
"#o######.#########.######Xo#####.####o######.###o ###############################o###########################Xo##.##oX##########",
"####OXo# Xo#O.O#oX #O.O#X o#oX # XX#o ###o #.oO##.## ..# XX#O.O# Xo#oX ## XOXX+#X o#.#.#o@X@X#@O+o.#.#.#X..##.###.###.##########",
"####o. # #.#.###.# # X.##.##.# #.#.##.####.# .###.##...#.#.#.#.# #.# # ##.##OoO##.##.#.#@oX#oXo@#.O#oX+#@X@#XX###.###X.#XX.#####",
"####XX # Xo#O.O#oX #OXX##.##oX #.#.#. X###.#.@X##o.#...#.# #O.O# Xo#oX ##.##oXX##.O#Xo ## O#Oo #OO.#@ ## Xo##.###.###.##########",
"############################+oo##########.X#####################.#####.#############################oO#######oo##.##oo##########",
"################################################################################################################################"
};
