/* XPM */
static char *_x_[] = {
/* columns rows colors chars-per-pixel */
"128 21 8 1",
"  c #edebee",
". c #d1cfd2",
"X c #bfbdc0",
"o c #99979a",
"O c #7a787b",
"+ c #535154",
"@ c #333134",
"# c #030104",
/* pixels */
"######X##XX##O@o#O oOXO##oX###X##@O##O@##@X@##################@O+..@#o.##XXO#X.O#+.#.Xo#@.X#XX #oXo#OX.+#####################o.O",
"######X##XX#o.oX#X.#oXO+@X####X##O@###o##O O#X################o#X##X##X####X###X#OX#..+#XXX+##O#X#.#X##X##o###o###Oo####oO#####X",
"######X#####@OO@#+ @#@O@OO+o#####X####X##@X@#X################o#XO#.##X###++#X +o#.###X#.@#X#O@#+ X#+.o.########Xo@#XXXX#@oX##++",
"######X#####.. X##XX@+OX @@O#####X####X#####X XX#####Xo######O@#X@#X##X##+O####XXo +##X#.##X#o##X##X##@X########@Oo+.XXX+oo@##X#",
"######o#####o@o##o O##oX .XO#####o@##@o######X####X#######o##o##@..+#o O# Xo+X.O##X#o.O#+..+@O##O..OXXX@##o###X####+####+#####o#",
"##################X###############O##O@##########@O#########O@###############################################@O#################",
"################################################################################################################################",
"#oX+#Oo#.XO#@.X@.XX@#.XX@.XX+.X#X##X#X o@X.#X#O+#X##.++. +#X+..+#.XO+..+..O#O.o@X XXX#X#o##Xo##oO+@o@O#O@XX #.O#O@###O.##oo#####",
"oXXX#oo#.#.#X###X##X#X###X##X@##X##X##X###X#XO+##X##XOOXXX#XX##X#X#XX##XX#X#X####X##X#X#O+#oo+oo#oo@#o+o##@O#X###o####.#++@O####",
"XX#.@oO+..X@X###.##X#.XX@ XXX#O..X..##X###X#..@##X##XOOXX++XX##X#..+X##X..+#@oo+#X##X#X##o++oOOo#Oo##@.@##o##X###O@###X#########",
".X#.OoooX##XX###X#@X#.###X##X##XX##X##X###.#X#X##X##X##XX#XXX##X#X##X##X.#o####.#X##X#X##oo#OoOo#XO@##X##O@##X###@O###X#########",
"oXXXX##X X.O@.X@.XX@#.XX@X##@.XoX##X#X XX.O#X#+o#.oo ##XX#+ +..+#X##+. @X#o+oXXO#X##o.o##Oo#+o+Oo@#X##X## XX#X####o###X#########",
"#oX###################################################################++#####################################X####@O##X#########",
"#############################################################################################################.O######oX#####XXXX",
"#O@######X########X#######oX#####X####o###o##X##X.###############################X############################O.##X##oo#########",
"####oX+##.XO#+.XoX.#+XX+#X XOX.##.Xo#o.##X.##.#o#X##.XX##XXo+..+#.XOOX.##.oX#oXoX X##X#XO@#oo##O+O@O#o#O@XX.##X###X###X#########",
"####+X.##.#X#X##X#.#XXXX##X#X#.##.#X##X###X##..##X##XXX##.#XX##X#.#XX#.##.###X+##X###X#X@O++o+Oo#OX##o#o##O+##X###X###X#XXXX####",
"####.#.##.#X#.##X#.#.#####X#X#.##X#X##X###X##.+O#X##XXX##X#X.##X#.#XX#.##.####@X#X###X#.#oo#OoOo#oo##+X+#++##XO###X###O.@#######",
"####oX.##.XO#+.XoX.#+ X###X#OX.##X#X#X X##X##X#o@O.#.XX##X#X+..+#.XOOX.##X###o.o#oo##oO.#OX#@oOO++@o##X## XX##.###X###.#########",
"############################oXO##########Xo######################X####X##############################oO#######X###X###X#########",
"##############################################################################################################OX##X##XO#########"
};
