/* XPM */
static char *_x__aa[] = {
/* columns rows colors chars-per-pixel */
"160 21 8 1",
"  c #e9e7ea",
". c #cccacd",
"X c #bdbbbe",
"o c #969497",
"O c #777578",
"+ c #545255",
"@ c #323033",
"# c #030004",
/* pixels */
"#######X###XX####OO##O X#oXO###o.O###X###@O###o###@#.@########################X#+..@##o.###XX.O@X.O###+.# XX@#@.X###XX. O..O#O.X+###########################X.O#",
"#######X###XX###oXXo#X.##OXO+@#X#####X###o@###@o###O o###X###################++#X#@X###X######X###X##@OX#.XX@#XXX+####+OX##X#X##o###o####o####Oo######oO######X#",
"#######X########+++##+ o@#@O@#OOO@o######X#####X##@@X@###X###################X##.O#X###.#####O@#X +##o#.###@X#.@#X####.#+  +#+.Xo###########Xo@##XXX.##@oX###O@#",
"#######X#######X ..###X#.@+OXO.+#oO######X#####X#######X. X#######XX########++##X@#X###X###@o@####X#@Xo +###.#X@#X###OO#X##X###@o###########@oo+#X.XX#+oo@###X##",
"#######o########OO###o .O##oXo+..Xo######o@###@o#########.####X#########o###X###@..+##o o## .XXOX.O####X#o..+#+..+###.##O..O#XXX@###o####X#####+######+######o##",
"######################.###################o###o##############@O############O+###########################################################@O######################",
"################################################################################################################################################################",
"#OXX@#+ ### XXO@XX.# XX@## X.+# XX+@XXo#X##X##. X##@..#X#+o##X###.++.# +#X#+..+## XXO+..+#.X.O#O.X+#X. .#X##X#o@#O+X##@o+O#o@+O#O+#XX. ## o#++####o.###O.@######",
"oXXX.#oO+##X##XX@###X##X##X####X###X@###X##X###.#####.#X+o###X###.OO.#XX#X#X##X##X##.X##X#.##.#X######X##X##X#+O#X#X@.@O#oOO##o@X####o+##X###X#####.##+O#o@#####",
"X.#@.#X#X## X +X####.##X## X.+# XX@X#oX# XX ###X#####X# .+###X###XOOX#X++X#.##X## X.+.##X#.X +#@oo+###X##X##X##X#o#oOXO+#+ ###@ ####O+###X###++####X############",
"X.#@.+.o ##X##XX@###X#@X##X####X###X##X#X##X###X#####.#X#X@##X###X##X#X#XX#X##X##X###X##X#.#@o####.###.##.##X##oO+#OX@.@#X@o###X###+O####.####X####X############",
"OXXXXX@#+O# XXO@XXX@.XX@## X.+#X###@..o#X##X##. .#@..O#X##.##.ooOX##.#X#+ #+..+##X###+. @#X##o@XX.O###X##O..O##+ ##@X# #o+#o+##.### X.X##X####++###X############",
"#OXX###################################################################################++################################################X#####X###X############",
"#########################################################################################################################################Xo#######oX#######XXXX#",
"#++########X###########X########oX#######X#####o#####o##X####X ######################################X###################################oX@##X###Xo############",
"#####oXX+##.X.+#+.X#+.X.#+XX+##. X#+.X.##.o.O#X.####..##X@o@##X##.XXXo#.o.O+..+##.X.++.X.##.oX@#o.o#. X###X##XO+#o@X###o@o#X#@o#+O#XX ###X####X####X############",
"#####+XX.##.##X#.###.##.#XX.X###.##X##.##.##.##.#####X##..@###X##.#.#X#.##..##.##.##.X##.##.@###o+###.####X##X#o#X#o@X++#+.@##o@o###O+###X####X####X##XXXX######",
"#####.#@.## ##X#.###.##.#.######X##.##.##.##X##X#####X##.+o###X##X#X#.#.##X.##X## ##X.##.##X#####@X##X####X##.#oO+#Oooo@#OX@##@Xo##+O###XO####X####O.@##########",
"#####O.o.##.X.+#+.X#+.X.#+..o###X##+.X.##.##X#X .X###.##X#OO##O.@X#X#X#.##X+..+##.X.++.X.##X####XXo##oo###OoO.#+ ##@.@.#+O#X###X@## XX###.####X####.############",
"###################################oX.+############o.O###########################X######X#####################################oO#########X####X####X############",
"#########################################################################################################################################OX@##X###XO############"
};
