/* XPM */
static char *_x_[] = {
/* columns rows colors chars-per-pixel */
"80 42 2 1",
"  c black",
"% c gray100",
/* pixels */
"       %   % %           %           %    %   %                                 ",
"       %   % %  % %  %%% %  %  %     %   %     %   % %   %                    % ",
"       %   % % %%%%%% %    %  % %    %   %     %    %    %                   %  ",
"       %        % %  %%%  %    %         %     %   %%% %%%%%     %%%%       %   ",
"               %%%%%  % %%  % % %        %     %    %    %    %%       %%  %    ",
"       %        % %  %%%    %  % %        %   %    % %   %    %        %%       ",
"                                                             %                  ",
"  %    %   %%  %%%%   %  %%%%  %%  %%%%  %%   %%                             %  ",
" % %  %%  %  %    %  %%  %    %       % %  % %  %  %%   %%     %       %    % % ",
" % %   %     %  %%  % %  %%%  %%%    %   %%  %  %  %%   %%    %  %%%%   %     % ",
" % %   %    %     % %%%%    % %  %   %  %  %  %%%            %           %   %  ",
" % %   %   %   %  %   %  %  % %  %  %   %  %    %  %%   %%    %  %%%%   %       ",
"  %   %%% %%%%  %%    %   %%   %%   %    %%   %%   %%   %      %       %     %  ",
"                                                       %                        ",
" %%   %%  %%%   %%  %%%  %%%% %%%%  %%  %  %  %%%    % %  % %    %  % %  %  %%  ",
"%  % %  % %  % %  % %  % %    %    %  % %  %   %     % % %  %    %%%% %% % %  % ",
"% %% %  % %%%  %    %  % %%%  %%%  %    %%%%   %     % %%   %    %%%% %% % %  % ",
"% %% %%%% %  % %    %  % %    %    % %% %  %   %     % %%   %    %  % % %% %  % ",
"%    %  % %  % %  % %  % %    %    %  % %  %   %  %  % % %  %    %  % % %% %  % ",
" %%  %  % %%%   %%  %%%  %%%% %     %%% %  %  %%%  %%  %  % %%%% %  % %  %  %%  ",
"                                                                                ",
"%%%   %%  %%%   %%   %%% %  % %  % %  % %  %  % % %%%%  %%%       %%%   %       ",
"%  % %  % %  % %  %   %  %  % %  % %  % %  %  % %    %  %   %       %  % %      ",
"%  % %  % %  %  %     %  %  % %  % %  %  %%   % %   %   %    %      %           ",
"%%%  %  % %%%    %    %  %  % %  % %%%%  %%    %   %    %     %     %           ",
"%    %% % % %  %  %   %  %  %  %%  %%%% %  %   %  %     %      %    %           ",
"%     %%  %  %  %%    %   %%   %%  %  % %  %   %  %%%%  %%%       %%%      %%%% ",
"        %                                                                       ",
" %        %            %        %       %      %     % %     %%                 ",
"  %       %            %       % %      %              %      %                 ",
"      %%% %%%   %%   %%%  %%   %    %%% %%%   %%     % % %    %  % %  %%%   %%  ",
"     %  % %  % %    %  % % %% %%%  %  % %  %   %     % %%     %  %%%% %  % %  % ",
"     % %% %  % %    %  % %%    %    %%  %  %   %     % % %    %  %  % %  % %  % ",
"      % % %%%   %%   %%%  %%   %   %    %  %  %%%  % % %  %  %%% %  % %  %  %%  ",
"                                    %%%             %                           ",
"                     %                                    %   %   %    % %      ",
"                     %                                   %    %    %  % %  % % %",
"%%%   %%% %%%   %%% %%%  %  %  % % %  % %  % %  % %%%%  %%    %    %%           ",
"%  % %  % %  % %%    %   %  %  % % %  %  %%  %  %   %    %    %    %       %   %",
"%  % %  % %      %%  %   %  %  % % %%%%  %%   % %  %     %    %    %            ",
"%%%   %%% %    %%%    %%  %%%   %  %%%% %  %   %  %%%%    %   %   %        % % %",
"%       %                                     %                                 "
};
