/* XPM */
static char * 5x8_xpm[] = {
/* columns rows colors chars-per-pixel */
"160 88 2 1",
" 	c black",
"%	c gray100",
/* pixels */
"                % %   %        %                                                                                                                                ",
"       %   % %  % %  %%%  %   % %    %    %   %                               %   %    %   %%  %%%%   %  %%%%  %%  %%%%  %%   %%               %       %     %  ",
"       %   % % %%%%%% %   % % % %    %   %     %  %  %   %                    %  % %  %%  %  %   %   %%  %    %       % %  % %  %  %%    %%   %         %   % % ",
"       %   % %  % %  %%%   %   %     %   %     %   %%    %                   %   % %   %     %  %%  % %  %%%  %%%    %   %%  %  %  %%    %%  %   %%%%    %    % ",
"       %       %%%%%  % % % % % %        %     %  %%%% %%%%%     %%%%       %    % %   %   %%     % %%%%    % %  %   %  %  %  %%%            %           %   %  ",
"                % %  %%%    % % %        %     %   %%    %    %%        %  %     % %   %  %    %  %   %  %  % %  %  %   %  %    %  %%    %%   %  %%%%   %       ",
"       %        % %   %        % %        %   %   %  %   %    %        %%% %      %   %%% %%%%  %%    %   %%   %%   %    %%   %%   %%    %     %       %     %  ",
"                                                             %          %                                                               %                       ",
"  %%                                                                                                                                                            ",
" %  % %%  %%%   %%  %%%  %%%% %%%%  %%  %  %  %%%  %%% %  % %    %  % %  %  %%  %%%   %%  %%%   %%   %%% %  % %  % %  % %  % %   %%%%%  %%% %     %%%   %       ",
"%  %%%  % %  % %  % %  % %    %    %  % %  %   %    %  % %  %    %%%% %% % %  % %  % %  % %  % %  %   %  %  % %  % %  % %  % %   %   %  %   %       %  % %      ",
"% % %%  % %%%  %    %  % %%%  %%%  %    %%%%   %    %  %%   %    %%%% %%%% %  % %  % %  % %  %  %     %  %  % %  % %  %  %%   % %   %   %    %      %           ",
"% % %%%%% %  % %    %  % %    %    % %% %  %   %    %  % %  %    %  % % %% %  % %%%  %% % %%%    %    %  %  % %  % %%%%  %%    %   %    %     %     %           ",
"%  % %  % %  % %  % %  % %    %    %  % %  %   %  % %  % %  %    %  % % %% %  % %    % %% %  % %  %   %  %  %  %%  %%%% %  %   %  %     %      %    %           ",
" %   %  % %%%   %%  %%%  %%%% %     %%  %  %  %%%  %   %  % %%%% %  % %  %  %%  %     %%  %  %  %%    %   %%   %%  %  % %  %   %  %%%%  %%%    %  %%%           ",
"  %%                                                                                    %                                                                  %%%% ",
"                                                                                                                                         %%      %%             ",
" %        %            %        %       %      %     % %     %%                                      %                                  %     %    %   % %      ",
"  %       %            %       % %      %              %      %                                      %                                   %    %   %   % %       ",
"      %%% %%%    %%  %%%  %%   %    %%  %%%   %%     % %  %   %  %% % %%%   %%  %%%   %%% % %    %% %%%  %  %  % % %   %%  % %  % %%%% %%     %    %%           ",
"     %  % %  %  %   %  % % %% %%%  %  % %  %   %     % %%%    %  % % %%  % %  % %  % %  % %% %  %%   %   %  %  % % % % % %%  %  %   %    %    %   %             ",
"     %  % %  %  %   %  % %%    %    %%% %  %   %     % %  %   %  % % %%  % %  % %%%   %%% %       %  % % %  %  % % % % % %%   %%%  %    %     %    %            ",
"      %%% %%%    %%  %%%  %%   %      % %  %  %%%  % % %  %  %%% % % %%  %  %%  %       % %     %%    %   %%%   %   % % %  % %  % %%%%   %%   %  %%             ",
"                                    %%              %                           %       %                                     %%                                ",
"                                                                                                                                                                ",
"                                                                                                                                                                ",
"                                                                                                                                                                ",
"                                                                                                                                                                ",
"                                                                                                                                                                ",
"                                                                                                                                                                ",
"                                                                                                                                                                ",
"                                                                                                                                                                ",
"                                %   %%%             %%                                      %   %%                             %    %       %    %    %         ",
"       %         %       %   %  %  %     % %  %%%  % %                 %%%  %%%   %        % %    %   %        %%%%           %%   % %      %    %     %     %  ",
"            %   % % %   % % %   %  %%%       % % %  %%                %%% %      % %   %     %  %%   %        %%% %            %    %       %    % %  %         ",
"       %   %%% %%%   %%% %%%%%     %  %      %%  %      % %           %% %%       %   %%%   %     %      %  % %%% %            %       % %  % %  %% %  %%    %  ",
"       %  % %   %    % %   %    %   %%%      %%  % %%% % %   %%%  %%% %%% %            %   %%%  %%       %  %  %% %  %        %%%  %%%  % %  %%     % % %   %   ",
"       %  % %   % %  %%% %%%%%  %     %      % % %      % %    %      %% %%                              %  %   % %                    % %  %%%%   %  %%%%  % % ",
"       %   %%% % %  %   %  %    %  %%%        %%%              %       %%%            %%%                %%%    % %       %                   %   %%%   %    %  ",
"            %                                                                                            %               %                                      ",
" %     %   %%   % % %  %  %%             %     %   %%  %  %  %      %   %   % %       % %  %     %   %%   % % %  %            %     %   %%  %  %    %           ",
"  %   %   %  % % %       %  %  %%%  %%    %   %   %  %        %    %   % %       %%% % %    %   %   %  % % %             %%%   %   %   %  %        %  %     %%  ",
" %%   %%   %%   %%   %%   %%  % %  %  % %%%% %%%% %%%% %%%%  %%%  %%%  %%%  %%%  %  %%  %  %%   %%   %%   %%   %%       % %% %  % %  % %  % %  % %   %%%%  %  % ",
"%  % %  % %  % %  % %  % %  % % %  %    %    %    %    %      %    %    %    %  %%% %%% % %  % %  % %  % %  % %  %      % %% %  % %  % %  % %  %  % % %  % % %  ",
"%%%% %%%% %%%% %%%% %%%% %%%% %%%% %    %%%  %%%  %%%  %%%    %    %    %    %   %  %% %% %  % %  % %  % %  % %  %  % % %% % %  % %  % %  % %  %   %  %  % % %  ",
"%  % %  % %  % %  % %  % %  % % %  %  % %    %    %    %      %    %    %    %   %  %%  % %  % %  % %  % %  % %  %   %  %% % %  % %  % %  % %  %   %  %%%  %  % ",
"%  % %  % %  % %  % %  % %  % % %%  %%  %%%% %%%% %%%% %%%%  %%%  %%%  %%%  %%%  %%% %  %  %%   %%   %%   %%   %%   % % %%%   %%   %%   %%   %%    %  %    % %  ",
"                                    %                                                                                                                           ",
" %     %    %   % %       %%             %     %   %%        %      %   %       % %   % %  %     %   %%   % %                 %     %   %%         %            ",
"  %   %    % % % %   % % %  %             %   %   %  %  % %   %    %   % %  % %  %   % %    %   %   %  % % %  %  %             %   %   %  % %  %  %   %    %  % ",
"                          %%                                                    % %                                  %                                %         ",
" %%%  %%%  %%%  %%%  %%%  %%% %%%%   %%  %%   %%   %%   %%   %%   %%   %%   %%     % %%%   %%   %%   %%   %%   %%        %%% %  % %  % %  % %  % %  % %%%  %  % ",
"%  % %  % %  % %  % %  % %  %  %% % %   % %% % %% % %% % %%   %    %    %    %   %%% %  % %  % %  % %  % %  % %  %  %%% % %% %  % %  % %  % %  % %  % %  % %  % ",
"%  % %  % %  % %  % %  % %  % % %%  %   %%   %%   %%   %%     %    %    %    %  %  % %  % %  % %  % %  % %  % %  %      %% % %  % %  % %  % %  %  %%% %%%   %%% ",
" %%%  %%%  %%%  %%%  %%%  %%%  %%%%  %%  %%   %%   %%   %%   %%%  %%%  %%%  %%%  %%  %  %  %%   %%   %%   %%   %%    %  %%%   %%%  %%%  %%%  %%% %  % %    %  % ",
"                                     %                                                                                                            %%  %     %%  ",
"%%%%      %  % %  %             %     %  %%   %%   %        %  % %  % %  % % %            %%%%      %  % %  %  %%                 %  % %  %  %%   %%  %  % %  % ",
"     %%%%  %%   %%   %%        %     %  %  % %  %        %   %%   %%   %%   % %  %%%   %       %%%%  %%   %%        %%  %%%%       %%   %%  %  % %  %  %%   %%  ",
" %%        %%       %  %       %%        %%        %%        %%       %%%     %  %  % %%% %%%%      %%%%      %%%%      %         %%%%       %%%       %%%      ",
"%  %  %%% %  %  %%% %  %  %%% %  %   %% %  %  %%  %  %   %% %  %  %%  %  %  %%% %%% %  %  %     %%  %     %%  %     %%  %%%   %%  %     %%  %     %%  %     %%  ",
"%%%% %  % %%%% %  % %%%% %  % %     %   %    %    %     %   %    %    %  % %  %  %  % %%  %%%  % %% %%%  % %% %%%  % %% %    % %% %%%  % %% % %% %  % % %% %  % ",
"%  % %  % %  % %  % %  % %  % %  %  %   %  % %    %  %  %   %  % %    %  % %  %  %  %% %  %    %%   %    %%   %    %%   %    %%   %    %%   %  %  %%% %  %  %%% ",
"%  %  %%% %  %  %%% %  %  %%%  %%    %%  %%   %%   %%    %%  %%   %%  %%%   %%%  %%%  %%  %%%%  %%  %%%%  %%  %%%%  %%  %%%%  %%  %%%%  %%   %%     %  %%     % ",
"                      %%   %                                                                                              %    %                  %%        %%  ",
" %%             %%   %%   %%             % %  % %  %%%      %  % %  %             %                   %    %                    %    %            % %  % %      ",
"      %%   %%   %   %  % %  %  % %  %   % %  % %        %%%  %%   %%   %%%   %            % %%  % %  % %  % %  %  % %          %    %  %     %%    %    %  %    ",
" %%%      %  %           %    %%%%%%%%% %%%        %%%       %%%        %        %%%      %  %       %%%       % %  %        %     %%  %      %  %     %%  %    ",
"%     %%  %     %%  %  % %%%   % %  %    %   %%     %   %%    %   %%    %   %%    %   %%  %  %  % %   %    %   %%   %  % % % %      %  %      %  %      %  % %  ",
"% %% %  % % %% %  % %%%% %  %  %%%  %%%  %    %     %    %    %    %    %    %    %    %  %  %  % %   %    %   % %  %%%  %%  %      %  %      %  %      %  %    ",
"%  %  %%% %  %  %%% %  % %  %  % %  %  % %    %     %    %    %    %    %    %    %    %  %% %  % % % %    %   % %  %  % % % %      %  %      %  %      %  %    ",
" %%     %  %%     % %  % %  %  % %  %  %%%%  %%%   %%%  %%%  %%%  %%%  %%%  %%%  %%%  %%% % %   % %  %   % %   %  % %  % % % %%%%  %%% %%%%  %%% %%%%  %%% %%%% ",
"      %%    %   %%                                                       %    %                  %        %   %    %                     %    %                 ",
"                 %    %            %  % %  % %%             %%%%      %  % %  %  %  % %  %            %    %            %  % %  %   %     %  %%    %            ",
"%%    %    %%   %    %   %  %       %%   %%   %   %  %           %%%%  %%   %%  %  % %  %  %%%       %    %   %%%        %%   %%   %     %  %  %  % %  %%       ",
" %    %%    %  %  %      %% %      %  %      %    %% %       %%        %%         %%      % %       %%%       %  %      %%%        %%%       %%%      %  %      ",
" % % %%     %% %% % %%%  %%%% %%%  %% % %%%    %% %%%% %%%  %  %  %%  %  %  %%   %  %  %% % %%  %%% %  % % %  %  %  % % %  % % %  %      %% %      %%  %     %% ",
" %    %    %%  % %% %  % % %% %  % % %% %  %   % %% %% %  % %  % %  % %  % %  %  %  % %  %% %  % % %%%%  %% % %%%   %% %%%%  %% %  %%   %%   %%   %%    %   %%  ",
" %    %     %  %  % %  % % %% %  % %  % %  %   % %% %% %  % %  % %  % %  % %  %  %  % %  %% %  % %% %  % %    %  %  %   %  % %       %    %    %    % %  %    % ",
"%%%   %%%% %%% %  % %  % %  % %  % %  % %  %   % %%  % %  %  %%   %%   %%   %%    %%   %%  %%%  %%%%%  % %    %  %  %   %  % %    %%%   %%  %%%   %%   %%   %%  ",
"                          %    %                    %    %                                                      %  %                                    %    %  ",
"%  %  % %            % % % %        %    % %  % % %%%%      %  % %  %   %    %   %  % %  %           %%    %    %   %%   % %   %    %   %%       %  % %  %      ",
" %%    %   %%%  %     %   %    %%% %%%  % %  % %       %%%%  %%   %%   % %  % % %  % %  % %  %            % %  % % %  %       %    %         %%   %%   %%    %  ",
" %%%        %   %    %%%  %     %   %             %  %                  %    %            %  %      %  %                %   %%%%%      %%%%      %%%%       % % ",
"%      %%   %  %%%    %  %%%   %%% %%%  %  % %  % %  % %  % %  % %  % %  % %  %  %  % %  %%  % %  % %  % %   % % % %  %  % %   %  %%%%   %  %%%%   %  %%%%  %   ",
" %%   %%    %   %     %   %     %   %   %  % %  % %  % %  % %  % %  % %  % %  %  %  % %  %%  % %  % %%%% % % % % % %  %   %   %     %   %     %   %     %  %%   ",
"   %    %   %   % %   %   % %   %   % % %  % %  % %  % %  % %  % %  % %  % %  %  %  % %  %%  % %  % %%%% % % %  %   %%%   %  %     %   %     %   %     %    %   ",
"%%%   %%    %    %    %    %    %    %   %%   %%%  %%   %%%  %%   %%%  %%   %%%   %%   %%% %%   %%% %  %  % %   %  %  %   %  %%%% %%%% %%%% %%%% %%%% %%%%  %   ",
"           %    %                                                                           %    %                  %%                                          "};
