/* XPM */
static char *square_[] = {
/* columns rows colors chars-per-pixel */
"160 24 2 1",
"  c black",
"% c gray100",
/* pixels */
"      %    % %  % %   %  %  %  %%     %   %  %                                   %%   %    %%   %%    %  %%%%  %%  %%%%  %%   %%               %      %     %%  ",
"      %    % %  % %  %%% %  % %  %   %   %    %   %  %   %                    % %  % %%   %  % %  %  %%  %    %  % %  % %  % %  %             %        %   %  % ",
"      %    % % %%%% %      %   %%   %   %      %   %%    %                    % %  %  %      %    % % %  %%%  %       % %  % %  %   %    %   %   %%%%   %     % ",
"      %         %%   %%   %    %        %      %  %%%% %%%%%     %%%%        %  %  %  %     %    %  % %     % %%%    %   %%   %%%           %            %   %  ",
"               %%%%    % %    % %       %      %   %%    %                  %   %  %  %    %      % %%%%    % %  %   %  %  %    %            %   %%%%   %   %   ",
"               % %  %%%  %  % %  %       %    %   %  %   %   %         %%  %    %  %  %   %    %  %   %  %  % %  %   %  %  % %  %   %    %    %        %        ",
"      %        % %   %   %  %  %%%        %  %               %         %%  %     %%  %%%  %%%%  %%    %   %%   %%    %   %%   %%         %     %      %     %   ",
"                                                            %                                                                           %                       ",
" %%   %%  %%%   %%  %%   %%%% %%%%  %%  %  % %%%    %  %  % %    %  % %  %  %%  %%%   %%  %%%   %%  %%%%%%  % %  % %  % %  % %  % %%%%  %%%        %%%  %       ",
"%  % %  % %  % %  % % %  %    %    %  % %  %  %     %  % %  %    %%%% %% % %  % %  % %  % %  % %  %   %  %  % %  % %  % %  % %  %    %  %    %       % % %      ",
"% %% %  % %  % %    %  % %    %    %    %  %  %     %  %%   %    %  % %% % %  % %  % %  % %  % %      %  %  % %  % %  %  % % %  %    %  %    %       % %  %     ",
"%% % %%%% %%%  %    %  % %%%  %%%  % %% %%%%  %     %  %    %    %  % % %% %  % %%%  %  % %%%   %%    %  %  % %  % %  %  %%  % %    %   %     %      %          ",
"% %% %  % %  % %    %  % %    %    %  % %  %  %     %  %%   %    %  % % %% %  % %    %  % % %     %   %  %  % %  % %  % % %   %    %    %      %     %          ",
"%    %  % %  % %  % % %  %    %    %  % %  %  %   % %  % %  %    %  % %  % %  % %     %%  % %  %  %   %  %  %  % % %%%% %  %  %   %     %       %    %          ",
" %%  %  % %%%   %%  %%   %%%% %     %%  %  % %%%   %   %  % %%%% %  % %  %  %%  %       % %  %  %%    %   %%    %  %  % %  %  %   %%%%  %%%     %  %%%          ",
"                                                                                                                                                           %%%%%",
"%         %            %         %      %     %      % %     %%                                                                          %%  %   %%             ",
" %        %            %        %       %              %      %                                      %                                  %    %     %            ",
"  %   %%  %     %%%    %  %%    %   %%% %    %%     %% %  %   %  %  % %%%   %%  %%%   %%% %%%   %%% %%%% %  % %  % %  % %  % %  % %%%%  %    %     %            ",
"        % %%%  %     %%% %  %  %%% %  % %%%   %      % % %    %  %%%% %  % %  % %  % %  % %  % %     %   %  % %  % %  %  % % %  %    % %     %      %  % %      ",
"      %%% %  % %    %  % %%%%   %  %  % %  %  %      % %%     %  %  % %  % %  % %  % %  % %     %%   %   %  % %  % %  %  %%  %  %   %   %    %     %  %%%       ",
"     %  % %  % %    %  % %      %   %%% %  %  %      % % %    %  %  % %  % %  % %%%   %%% %       %  %   %  %  % % %%%% % %   %%%  %    %    %     %            ",
"      %%% %%%   %%%  %%%  %%    %     % %  % %%%     % %  %  %%% %  % %  %  %%  %       % %    %%%    %%  %%%   %  %  % %  %   %  %%%%   %%  %   %%             ",
"                                   %%%             %%                           %       %                                    %%              %                  ",
};
