/* XPM */
static char *square_[] = {
/* columns rows colors chars-per-pixel */
"80 48 2 1",
"  c black",
"% c gray100",
/* pixels */
"      %    % %  % %   %  %  %  %%     %   %  %                                  ",
"      %    % %  % %  %%% %  % %  %   %   %    %   %  %   %                    % ",
"      %    % % %%%% %      %   %%   %   %      %   %%    %                    % ",
"      %         %%   %%   %    %        %      %  %%%% %%%%%     %%%%        %  ",
"               %%%%    % %    % %       %      %   %%    %                  %   ",
"               % %  %%%  %  % %  %       %    %   %  %   %   %         %%  %    ",
"      %        % %   %   %  %  %%%        %  %               %         %%  %    ",
"                                                            %                   ",
" %%   %    %%   %%    %  %%%%  %%  %%%%  %%   %%               %      %     %%  ",
"%  % %%   %  % %  %  %%  %    %  % %  % %  % %  %             %        %   %  % ",
"%  %  %      %    % % %  %%%  %       % %  % %  %   %    %   %   %%%%   %     % ",
"%  %  %     %    %  % %     % %%%    %   %%   %%%           %            %   %  ",
"%  %  %    %      % %%%%    % %  %   %  %  %    %            %   %%%%   %   %   ",
"%  %  %   %    %  %   %  %  % %  %   %  %  % %  %   %    %    %        %        ",
" %%  %%%  %%%%  %%    %   %%   %%    %   %%   %%         %     %      %     %   ",
"                                                        %                       ",
" %%   %%  %%%   %%  %%   %%%% %%%%  %%  %  % %%%    %  %  % %    %  % %  %  %%  ",
"%  % %  % %  % %  % % %  %    %    %  % %  %  %     %  % %  %    %%%% %% % %  % ",
"% %% %  % %  % %    %  % %    %    %    %  %  %     %  %%   %    %  % %% % %  % ",
"%% % %%%% %%%  %    %  % %%%  %%%  % %% %%%%  %     %  %    %    %  % % %% %  % ",
"% %% %  % %  % %    %  % %    %    %  % %  %  %     %  %%   %    %  % % %% %  % ",
"%    %  % %  % %  % % %  %    %    %  % %  %  %   % %  % %  %    %  % %  % %  % ",
" %%  %  % %%%   %%  %%   %%%% %     %%  %  % %%%   %   %  % %%%% %  % %  %  %%  ",
"                                                                                ",
"%%%   %%  %%%   %%  %%%%%%  % %  % %  % %  % %  % %%%%  %%%        %%%  %       ",
"%  % %  % %  % %  %   %  %  % %  % %  % %  % %  %    %  %    %       % % %      ",
"%  % %  % %  % %      %  %  % %  % %  %  % % %  %    %  %    %       % %  %     ",
"%%%  %  % %%%   %%    %  %  % %  % %  %  %%  % %    %   %     %      %          ",
"%    %  % % %     %   %  %  % %  % %  % % %   %    %    %      %     %          ",
"%     %%  % %  %  %   %  %  %  % % %%%% %  %  %   %     %       %    %          ",
"%       % %  %  %%    %   %%    %  %  % %  %  %   %%%%  %%%     %  %%%          ",
"                                                                           %%%%%",
"%         %            %         %      %     %      % %     %%                 ",
" %        %            %        %       %              %      %                 ",
"  %   %%  %     %%%    %  %%    %   %%% %    %%     %% %  %   %  %  % %%%   %%  ",
"        % %%%  %     %%% %  %  %%% %  % %%%   %      % % %    %  %%%% %  % %  % ",
"      %%% %  % %    %  % %%%%   %  %  % %  %  %      % %%     %  %  % %  % %  % ",
"     %  % %  % %    %  % %      %   %%% %  %  %      % % %    %  %  % %  % %  % ",
"      %%% %%%   %%%  %%%  %%    %     % %  % %%%     % %  %  %%% %  % %  %  %%  ",
"                                   %%%             %%                           ",
"                                                         %%  %   %%             ",
"                     %                                  %    %     %            ",
"%%%   %%% %%%   %%% %%%% %  % %  % %  % %  % %  % %%%%  %    %     %            ",
"%  % %  % %  % %     %   %  % %  % %  %  % % %  %    % %     %      %  % %      ",
"%  % %  % %     %%   %   %  % %  % %  %  %%  %  %   %   %    %     %  %%%       ",
"%%%   %%% %       %  %   %  %  % % %%%% % %   %%%  %    %    %     %            ",
"%       % %    %%%    %%  %%%   %  %  % %  %   %  %%%%   %%  %   %%             ",
"%       %                                    %%              %                  ",



};
