/* XPM */
static char *square_[] = {
/* columns rows colors chars-per-pixel */
"128 32 2 1",
"% c black",
"  c gray100",
/* pixels */
"      %    % %  % %   %  %  %  %%     %   %  %                                   %%   %    %%   %%    %  %%%%  %%  %%%%  %%     ",
"      %    % %  % %  %%% %  % %  %   %   %    %   %  %   %                    % %  % %%   %  % %  %  %%  %    %  % %  % %  %    ",
"      %    % % %%%% %      %   %%   %   %      %   %%    %                    % %  %  %      %    % % %  %%%  %       % %  %    ",
"      %         %%   %%   %    %        %      %  %%%% %%%%%     %%%%        %  %  %  %     %    %  % %     % %%%    %   %%     ",
"               %%%%    % %    % %       %      %   %%    %                  %   %  %  %    %      % %%%%    % %  %   %  %  %    ",
"               % %  %%%  %  % %  %       %    %   %  %   %   %         %%  %    %  %  %   %    %  %   %  %  % %  %   %  %  %    ",
"      %        % %   %   %  %  %%%        %  %               %         %%  %     %%  %%%  %%%%  %%    %   %%   %%    %   %%     ",
"                                                            %                                                                   ",
" %%               %      %     %%   %%   %%  %%%   %%  %%   %%%% %%%%  %%  %  % %%%    %  %  % %    %  % %  %  %%  %%%   %%     ",
"%  %             %        %   %  % %  % %  % %  % %  % % %  %    %    %  % %  %  %     %  % %  %    %%%% %% % %  % %  % %  %    ",
"%  %   %    %   %   %%%%   %     % % %% %  % %  % %    %  % %    %    %    %  %  %     %  %%   %    %  % %% % %  % %  % %  %    ",
" %%%           %            %   %  %% % %%%% %%%  %    %  % %%%  %%%  % %% %%%%  %     %  %    %    %  % % %% %  % %%%  %  %    ",
"   %            %   %%%%   %   %   % %% %  % %  % %    %  % %    %    %  % %  %  %     %  %%   %    %  % % %% %  % %    %  %    ",
"%  %   %    %    %        %        %    %  % %  % %  % % %  %    %    %  % %  %  %   % %  % %  %    %  % %  % %  % %     %%     ",
" %%         %     %      %     %    %%  %  % %%%   %%  %%   %%%% %     %%  %  % %%%   %   %  % %%%% %  % %  %  %%  %       %    ",
"           %                                                                                                                    ",
"%%%   %%  %%%%%%  % %  % %  % %  % %  % %%%%  %%%        %%%  %       %         %            %         %      %     %      %    ",
"%  % %  %   %  %  % %  % %  % %  % %  %    %  %    %       % % %       %        %            %        %       %                 ",
"%  % %      %  %  % %  % %  %  % % %  %    %  %    %       % %  %       %   %%  %     %%%    %  %%    %   %%% %    %%     %%    ",
"%%%   %%    %  %  % %  % %  %  %%  % %    %   %     %      %                  % %%%  %     %%% %  %  %%% %  % %%%   %      %    ",
"% %     %   %  %  % %  % %  % % %   %    %    %      %     %                %%% %  % %    %  % %%%%   %  %  % %  %  %      %    ",
"% %  %  %   %  %  %  % % %%%% %  %  %   %     %       %    %               %  % %  % %    %  % %      %   %%% %  %  %      %    ",
"%  %  %%    %   %%    %  %  % %  %  %   %%%%  %%%     %  %%%                %%% %%%   %%%  %%%  %%    %     % %  % %%%     %    ",
"                                                                 %%%%%                                   %%%             %%     ",
"%     %%                                                                          %%  %   %%                                    ",
"%      %                                      %                                  %    %     %                                   ",
"%  %   %  %  % %%%   %%  %%%   %%% %%%   %%% %%%% %  % %  % %  % %  % %  % %%%%  %    %     %                                   ",
"% %    %  %%%% %  % %  % %  % %  % %  % %     %   %  % %  % %  %  % % %  %    % %     %      %  % %                             ",
"%%     %  %  % %  % %  % %  % %  % %     %%   %   %  % %  % %  %  %%  %  %   %   %    %     %  %%%                              ",
"% %    %  %  % %  % %  % %%%   %%% %       %  %   %  %  % % %%%% % %   %%%  %    %    %     %                                   ",
"%  %  %%% %  % %  %  %%  %       % %    %%%    %%  %%%   %  %  % %  %   %  %%%%   %%  %   %%                                    ",
"                         %       %                                    %%              %                                         ",
};
