/* XPM */
static char *_x_[] = {
/* columns rows colors chars-per-pixel */
"160 27 16 1",
", c #F1EFF2",
". c #E5E3E6",
"X c #D8D7D9",
"o c #C6C4C7",
"O c #BAB8BB",
"+ c #ABA9AC",
"@ c #9A999B",
"# c #8B8A8C",
"$ c #7B797C",
"% c #6A686B",
"& c #585659",
"* c #484649",
"= c #363437",
"- c #262427",
"; c #181619",
": c #020003",
/* pixels */
":::::::X:::X:X::;O;O:::X:::::::%oO:::X:::::+:::+::;:X:;:::::::::::::::::::::::%%=oo=::o,:::Ooo*:@oo&::&,::.oo*;+oO::oOo,&Xo&:*XO=:::::::::::::::::::::::::::*OX%",
":::::::X:::X:X::&$*#:&o,+%o%:::X:::::X::::%%:::%%:=$,$=:::::::::::::::::::::::o:+==+::;X:::-:;X:::;X::@X::X:::@*::::::=@X:;X:X-:&:::::::::::::::::::::::::::;::X",
":::::::X:::-:-:+XOXO:X;X-X;X:::o*::::-::::O;:::;O:=$,$=::X:::::::::::::::::::%%:X::X:::X::::::X:::;o:&&X::.oO;X#o=::::@*O;;O:X::*:::X::::X::::;%O:::::O%;::::;O$",
":::::::X::::::::X:o::+#.:%o+#&;Oo:::::::::X:::::X:;:X:;::X:::::::::::::::::::o::X:$X:::X:::::@&::O,*:O:X::;:*O.&-o::::X:=..=:o=:@:::-::::-::&++&:oOooO;&++&::O%:",
":::::::::::::::o,o,o::=,@*#+o%O*%%o:::::::X:::::X::::::oo,oo:::::::oO-::::::&$::X::X:::X::::%#::::;o%&:X:::::X.;:X:::*@:o;;o:-oo%:::::::::::o+*:::::::::*+O::o::",
":::::::::::::::$&%%::;:XX::X:XX*:#$:::::::O;:::;O::::::::X::::O:::::::::-:::o;::+-=+:::X:::&+:::::;X#OO,#:::=o+*;o:::@*:X;;X::::*:::-::::O:::;$o@oOooO@o$-::::::",
":::::::+:::::::+-@-::+O,$::#o$*Xo+@:::::::%%:::%%::::::::X::::o:::::::::X::&$:::=oX-::O,OO:,oo+;ooo&:::X::OoX==XX*::;X::&oo&:Oo@;:::X::::o::::::=:::::=::::::+::",
":::::::::::::::::::::::X:::::::::::::::::::+:::+:::::::::::::=$:::::::::::::::::::::::::::::::::::::::::::::::::::::::::::::::::::::::::=$::::::::::::::::::::::",
"::::::::::::::::::::::::::::::::::::::::::::::::::::::::::::::::::::::::::::::::::::::::::::::::::::::::::::::::::::::::::::::::::::::::::::::::::::::::::::::::",
":%Oo=:;,&::.oo&:;+oo;.oO;:.oo+:.oO+;+o+::X::X:o,Oo:%o.::X::O*X:::,$:$,:,&:X=oo=::.OX*=Xo=::,OX&:*oo+oo,Oo:X::X@*::XX:::@@@:-oO=:=O:Ooo,::.O:&$::::O.:::*o#::::::",
"&+:=o:*@@::X:;X:#&:::X:*@:X::::X:::@*:;::X::X::X:::::X::X:+&:X:::X+:+X:X@:X+=-+::X:;o+--+::X:;X:X;:;::X:::X::X&$:=+o:::+;o;+==+:+=:::&#::X:::o;::::X::=#:&$:::::",
"O;%O.:@=o::X:;o:X::::X::X:X::::X:::X:::::X::X::X:::::X::X#$::X:::X@-@X:X@;XX::X::X::XX::X::X:;o:o=::::X:::X::X;o:$%+-.=o:=o@::+%+::::o;::X:::&$::::X::::::::::::",
"X:X;.-o:@-:.o.*:X::::X::X:.oo+:.oo%X:+o::.oo.::X:::::X::,X#::X:::X*O*X:X&&XX::X::X:=oX::X::.o,=:=OX*::X:::X::X:o:+-#&O%o::,&::-,-:::$%:::X::::o::::X::::::::::::",
"X:X;.%.OX$:X:;o:X::::X::X:X::::X:::X::X::X::X::X:::::X::X:o=:X:::X:,;X:X:@XX::X::,oo=X::X::X:&#:::;X::X:::X::X:#*o:%@&@+:$$o:::X:::;o::::X::::%%:::X::::::::::::",
"O-%OoO&:;O:X::X:#&:::X:*@:X::::X:::@*:X::X::X::X::-:;X::X:=o:X:::X:::X:X:@XO--+::X:::+--+::X::o;-:;X::X:::o;:X:*+@:*,;O#;o:#%::X:::#*::::X:::::o:::X::::::::::::",
"*O;:::-::X;.oX%:;Ooo;.oO;:,Oo+:X:::;Oo@::X::X:o,oO#oX&::X::+%,OOO.:::X:X:&,-Xo=::X:::=X.-::X::$%Ooo&::X:::&oo&::,&:;.:@%+&::X;:X:::,oOo::X:::::%%::X::::::::::::",
":&OO;::::::::::::::::::::::::::::::::::::::::::::::::::::::::::::::::::::::::::::::::::%&::::::::::::::::::::::::::::::::::::::::::::::::oO:::::::Oo::::::::::::",
":::::::::::::::::::::::::::::::::::::::::::::::::::::::::::::::::::::::::::::::::::::::::::::::::::::::::::::::::::::::::::::::::::::::::::::::::::::::::::ooOo:",
":$&::::::::X:::::::::::X::::::::$oo::::::X:::::@:::::+::X:::-o.:::::::::::::::::::::::::::::::::::::::=::::::::::::::::::::::::::::::::::#o;::X:::O@::::::::::::",
"::+;:::::::X:::::::::::X::::::::X::::::::X::::::::::::::X:::::X:::::::::::::::::::::::::::::::::::::::X::::::::::::::::::::::::::::::::::X::::X::::X::::::::::::",
":::::Ooo&::X+X*:-ooO&X+.:=oX*::O,oo*X+X::X@X$:o.:::=o.::X:$$::X::.OOo@:X+X$:*Xo*:XOX*:*X+X:X@o%:$oO*:o,oo:X::X%%:;Oo:::@&O:%$-+::o;Ooo,::X::::X::::X::::::::::::",
":::::;::X::,;;o:O=::X;;,:o-;O:::X::o-;,::,-:X::X:::::X::X$$:::X::.:.:X:,;:X:o;-o:,;;o:o;;,:,=:::X;::::X:::X::X;O:$&+;::O:%@+::O;=@:::@%::X::::X::::X::%o$:&:::::",
":::::&oo.::X::X:X:::X::X:.Ooo:::X::X::.::X::X::X:::::X::,O$:::X::X:X:X:X::X:X::X:X::X:.::.:X::::*+O&::X:::X::X:O;O;%*X-O::,*::%%#*::$#::o$::::X::::$.;&:&o%:::::",
":::::X:;,::,;-o:o=::X;;,:o;:::::X::o;;,::X::X::X:::::X::X:O=::X::X:X:X:X::X:o;-o:,-;o:o;;,:X::::::;X::X:::X:;.:&#+:=@$@#:@%o;:;Oo::%@::::X::::X::::X::::::::::::",
":::::#o+X::.+X*:-ooO&XOX:=ooO:::X::*X+X::X::X:o,oo:::X::X:;X::%XO,:X:X:X::X:&XX*:X+X*:*X+X:X::::OOo%::#O+:$+#.:;,&::,;O**@:*@::+#::,ooo::X::::X::::X::::::::::::",
":::::::::::::::::::::::::::::::::::::;X::::::::::::::X:::::::::::::::::::::::::::X:::::::X:::::::::::::::::::::::::::::::::::::+-::::::::X::::X::::X::::::::::::",
":::::::::::::::::::::::::::::::::::;OX&::::::::::::Oo%:::::::::::::::::::::::::::X:::::::X::::::::::::::::::::::::::::::::::::O@:::::::::$o;::X:::O$::::::::::::"
};
