/* XPM */
static char * wmtz_master_xpm[] = {
"192 24 4 1",
"$	c #FFFFFF",
"&	c #9e9e9e",
"%	c #5b5b5b",
" 	c #000000",
" %%%   %$%   %%%   %%%  &$$$& &$%%& &$&%   %&%   %$$   $$%   %%%   %%%   %%%   %%%   %%%   %%%&  $$$   %%%& &$$$& &$$$& &%%%& &$$$& &$$$& &$$$& &$$$& &$$$&  %%%   %%%   %%%   %%%   %%%  &$$$& ",
"%   % % $ % % $ $ % $ $ $ & % $&  $ $   % % $ % %$  % %  $% $ $ $ % $ % %   % %   % %   % %   $ $   $ %   $ %   $ %   $ $   $ $   % $   % %   $ $   $ $   $ %   $ %   $ %   % %   % %   % $   $ ",
"%   % % $ % % $ $ % $ $ $ $ % %  $% $ $ % % $ % $   % %   $ & $ & % $ % %   % %   % %   % %  $  $   $ %   $ %   $ %   $ $   $ $   % $   % %   $ $   $ $   $ %   & %   & %   % %   % %   % %   $ ",
" %%%   %&%   %%%   $$$& &$$$&  %$%  &$&$   %%%  &%%%   %%%&  $$$  &$$$&  %%%  &$$$&  %%%   %$%  &%%%&  %%%& &$$$&  $$$& &$$$& &$$$& &$$$&  %%%& %$$$% &$$$&  %%%   %%%   %$%  &$$$&  %$%   %&$& ",
"%   % % $ % %   % % $ $ % & $ %$  % $ $ % %   % $   % %   $ & $ & % $ % %   $ %   % %   $ %$  % $   $ %   $ $   % %   $ %   $ %   $ $   $ %   $ $   $ %   $ %   $ %   $ %$  % %   % %  $% % $ % ",
"%   % %   % %   % % $ $ % $ $ $  &$ $ $ % %   % %$  % %  $% $ $ $ % $ % %   & %   % %   & $   % $   $ %   $ $   % %   $ %   $ %   $ $   $ %   $ $   $ %   $ %   & %   & $   % %   % %   $ %   % ",
" %%%   %$%   %%%   $$$& &$$$& &%%%& &$$$&  %%%   %$$   $$%   %%%   %%%   %%$   %%%   %%%  &%%%   $$$   %%%$ &$$$& &$$$&  %%%& &$$$& &$$$&  %%%& &$$$& &$$$&  %%%   %%$  &$$$& &$$$& &$$$&  %$%  ",
"                                                                                                                                                                                                ",
"&$$$& %$$$% &$$$  &$$$& &$$$  &$$$& &$$$& &$$$& &%%%&  %%%&  %%%& &%%%& &%%%  $%%%$ &$$$  &$$$& &$$$& &$$$& &$$$& &$$$& &$$$& &%%%& &%%%& &%%%& &%%%& &%%%& &$$$& &$$$  &%%%   $$$& &$$$&  %%%  ",
"$   $ $   $ $   $ $   % $   $ $   % $   % $   % $   $ %   $ %   $ $   $ $   % $$ $$ $   $ $   $ $   $ $   $ $   $ $   % % $ % $   $ $   $ $   $ $   $ $   $ %   $ $   % $   % %   $ $   $ %   % ",
"$ $ $ $   $ $   $ $   % $   $ $   % $   % $   % $   $ %   $ %   $ $  $% $   % $ $ $ $   $ $   $ $   $ $   $ $   $ $   % % $ % $   $ $   $ $   $ %$ $% $   $ %  $% $   % %$  % %   $ $   $ %   % ",
"&%&$& &$$$& &$$$  &%%%  &%%%& &$$$  &$$$  &%$$& &$$$&  %%%&  %%%& &$$%  &%%%  &%%%& &%%%& &%%%& &$$$& &$%%& &$$$  &$$$&  %&%  &%%%& &%%%& &%%%&  %$%  &$$$&  %$%  &%%%   %$%   %%%& &%%%&  %%%  ",
"$   % $   $ $   $ $   % $   $ $   % $   % $   $ $   $ %   $ %   $ $  $% $   % $   $ $   $ $   $ $   % $ $ $ $   $ %   $ % $ % $   $ $   $ $ $ $ %$ $% %   $ %$  % $   % %  $% %   $ %   % %   % ",
"$   % $   $ $   $ $   % $   $ $   % $   % $   $ $   $ %   $ %   $ $   $ $   % $   $ $   $ $   $ $   % $  $$ $   $ %   $ % $ % $   $ $   $ $$ $$ $   $ %   $ $   % $   % %   $ %   $ %   % %   % ",
"&$$$& &%%%& $$$$  &$$$& $$$$  &$$$& $%%%  &$$$& &%%%&  %%%$ &$$$& &%%%& &$$$% &%%%& $%%%$ &$$$& &%%%  &$$$& &%%%& &$$$&  %&%  %$$$$  $$$  $%%%$ &%%%$&&$$$& &$$$& &$$$   %%%&  $$$&  %%%  &$$$& ",
"                                                                                                                                                                                                ",
"&%%%  %$$$% &$$$  &$$$& &$$$  &$$$& &$$$& &$$$& &%%%&  %%%&  %%%& &%%%& &%%%  $%%%$ &$$$  &$$$& &$$$& &$$$& &$$$& &$$$& &$$$& &%%%& &%%%& &%%%& &%%%& &%%%& &$$$&  %&$&  %&%  &$&%   %%%   %%%  ",
"%$  % $   $ $   $ $   % $   $ $   % $   % $   % $   $ %   $ %   $ $   $ $   % $$ $$ $   $ $   $ $   $ $   $ $   $ $   % % $ % $   $ $   $ $   $ $   $ $   $ %   $ % $ % % $ % % $ % %   % %   % ",
"% $ % $   $ $   $ $   % $   $ $   % $   % $   % $   $ %   $ %   $ $  $% $   % $ $ $ $   $ $   $ $   $ $   $ $   $ $   % % $ % $   $ $   $ $   $ %$ $% $   $ %  $% % $ % % $ % % $ % %$  % %   % ",
" %%%  &$$$& &$$$  &%%%  &%%%& &$$$  &$$$  &%$$& &$$$&  %%%&  %%%& &$$%  &%%%  &%%%& &%%%& &%%%& &$$$& &$%%& &$$$  &$$$&  %&%  &%%%& &%%%& &%%%&  %$%  &$$$&  %$%  &$%%   %&%   %&$& $%$%$  %%%  ",
"%   % $   $ $   $ $   % $   $ $   % $   % $   $ $   $ %   $ %   $ $  $% $   % $   $ $   $ $   $ $   % $ $ $ $   $ %   $ % $ % $   $ $   $ $ $ $ %$ $% %   $ %$  % % $ % % $ % % $ % %  $% %   % ",
"%   % $   $ $   $ $   % $   $ $   % $   % $   $ $   $ %   $ %   $ $   $ $   % $   $ $   $ $   $ $   % $  $$ $   $ %   $ % $ % $   $ $   $ $$ $$ $   $ %   $ $   % % $ % % $ % % $ % %   % %   % ",
" %%%  &%%%& $$$$  &$$$& $$$$  &$$$& $%%%  &$$$& &%%%&  %%%$ &$$$& &%%%& &$$$% &%%%& $%%%$ &$$$& &%%%  &$$$& &%%%& &$$$&  %&%  %$$$$  $$$  $%%%$ &%%%$&&$$$& &$$$&  %&$&  %&%  &$&%   %%%   %%%  ",
"                                                                                                                                                                                                ",
};
