/* XPM */
static char * 6x8_xpm[] = {
"192 88 2 1",
" 	c #000000",
"+	c #FFFFFF",
"        +    +  +  + +    +   +   +  ++       +    +   +                                         +++    +    +++   +++     +  +++++  +++  +++++  +++   +++                 ++       ++     +++  ",
"        +    +  +  + +   ++++ +   + +  +     +    +     +   +   +   +                           +   +  ++   +   + +   +   ++  +     +   + +   + +   + +   +               +           +   +   + ",
"        +    +  + +++++ +        +   ++     +    +       +   + +    +                         + +  ++   +       +     +  + +  ++++  +        +  +   + +   +   +     +    +    +++++    +      + ",
"        +          + +   +++    +    +           +       +  +++++ +++++       +++++          +  + + +   +     ++    ++  +  +      + ++++    +    +++   ++++             +               +    +  ",
"                  +++++     +  +    + + +        +       +   + +    +                       +   ++  +   +    +        + +++++     + +   +   +   +   +     +              +    +++++    +    +   ",
"                   + +  ++++  +   + +  +          +     +   +   +   +     +           ++   +    +   +   +   +     +   +    +  +   + +   +   +   +   + +   +   +     +     +           +         ",
"        +          + +    +   +   +  ++ +          +   +                  +           ++  +      +++   +++  +++++  +++     +   +++   +++    +    +++   +++          +      ++       ++      +   ",
"                                                                         +                                                                                         +                            ",
" +++    +   ++++   +++  +++   +++++ +++++  +++  +   +  +++    +++ +   + +     +   + +   +  +++  ++++   +++  ++++   +++  +++++ +   + +   + +   + +   + +   + +++++  +++         +++    +         ",
"+   +  + +  +   + +   + +  +  +     +     +   + +   +   +      +  +  +  +     ++ ++ +   + +   + +   + +   + +   + +   +   +   +   + +   + +   + +   + +   +     +  +             +   + +        ",
"+ +++ +   + +   + +     +   + +     +     +     +   +   +      +  + +   +     + + + ++  + +   + +   + +   + +   + +       +   +   + +   + +   +  + +  +   +    +   +    +        +  +   +       ",
"+ + + +++++ ++++  +     +   + ++++  +++   +  ++ +++++   +      +  ++    +     +   + + + + +   + ++++  +   + ++++   +++    +   +   + +   + +   +   +    + +    +    +     +       +              ",
"+ +++ +   + +   + +     +   + +     +     +   + +   +   +      +  + +   +     +   + +  ++ +   + +     +   + + +       +   +   +   + +   + + + +  + +    +    +     +      +      +              ",
"+     +   + +   + +   + +  +  +     +     +   + +   +   +   +  +  +  +  +     +   + +   + +   + +      +++  +  +  +   +   +   +   +  + +  ++ ++ +   +   +   +      +       +     +              ",
" +++  +   + ++++   +++  +++   +++++ +      +++  +   +  +++   ++   +   + +++++ +   + +   +  +++  +        ++ +   +  +++    +    +++    +   +   + +   +   +   +++++  +++      +  +++              ",
"                                                                                                                                                                                          +++++ ",
"+           +               +          ++       +       +       +        ++                                                                                         +++   +   +++               ",
" +          +               +         +         +                 +       +                                               +                                        +      +      +              ",
"  +    +++  +      ++++     +  +++    +    ++++ +      ++      ++ +       +   ++ +  ++++   +++  ++++   ++++ ++++   ++++ +++++ +   + +   + +   + +   + +   + +++++  +      +      +              ",
"          + ++++  +      ++++ +   +  ++++ +   + ++++    +       + + ++    +   + + + +   + +   + +   + +   + +   + +       +   +   + +   + + + +  + +  +   +    +  +       +       +  ++ +       ",
"       ++++ +   + +     +   + +++++   +   +   + +   +   +       + ++      +   + + + +   + +   + +   + +   + +      +++    +   +   + +   + + + +   +   +   +   +    +      +      +  + ++        ",
"      +   + +   + +     +   + +       +    ++++ +   +   +       + + +     +   + + + +   + +   + ++++   ++++ +         +   +   +   +  + +  + + +  + +   ++++  +     +      +      +              ",
"       ++++ ++++   ++++  ++++  +++    +       + +   +  +++      + +  ++  +++  + + + +   +  +++  +         + +     ++++     ++  ++++   +    + +  +   +    +  +++++   +++   +   +++               ",
"                                          ++++               +++                                +         +                                           +++                                       ",
"                                                                                                                                                                                                ",
"                                                                                                                                                                                                ",
"                                                                                                                                                                                                ",
"                                                                                                                                                                                                ",
"                                                                                                                                                                                                ",
"                                                                                                                                                                                                ",
"                                                                                                                                                                                                ",
"                                                                                                                                                                                                ",
"        +   + + + + + + + + + + + +   +    +++   + +         ++                           +++++  ++         ++    +++       + + + + + + +       + + +  +     ++          +     +    +++     +   ",
"                                      +   +   +  + +        +  +                                +  +          +    +       +                          ++    +  +         +     +     +          ",
"        +   +   + +   + +   + +   +   +    ++          +++  + +     +  +             +++        +  +    +    +      +     +   +   + +   +       +   +  +    +  +  +  +   +     +      +     +   ",
"        +                                  + +        + + +  + +   +  + +++++ +++++ + +++        ++   +++++ +++   ++                       ++         +++    ++    +  +    +    ++  ++ +     +  ",
"        +   +   + +   + +   + +   +   +     ++        ++  +       +  +      +       + +++               +                     +   + +   +  ++   +   +               +  +  +       +   +       + ",
"        +                             +   +   +       + + + +++++  +  +     +       + + +                                                                   +++++  +  +   +++    +    +++ +   + ",
"        +   + + + + + + + + + + + +   +    +++         +++          +  +             +++              +++++                   + + + + + +       + + +             +  +     +    +++    +   +++  ",
"                                                                                                                                                                                                ",
"  +     +     +     +     +     +     +++  +++  +++++ +++++ +++++ +++++  +++   +++   +++   +++  +++   +   +  +++   +++   +++   +++   +++         +++  ++  + +  ++ + + + +   + +  ++ +      +++  ",
" + +   + +   + +   + +   + +   + +   ++   +   + +     +     +     +       +     +     +     +   +  +  +   + +   + +   + +   + +   + +   + +   + +   + + + + + + + ++ ++ + + + + + + ++++  +   + ",
"+   + +   + +   + +   + +   + +   + + +   +     +     +     +     +       +     +     +     +   +   + ++  + +   + +   + +   + +   + + + +  + +  +   + +   + +   + +   + +   + +   + +   + + ++  ",
"+++++ +++++ +++++ +++++ +++++ +++++ +++++ +     ++++  ++++  ++++  ++++    +     +     +     +   ++  + + + + +   + +   + +   + +   + +   +   +   +   + +   + +   + +   + + + +  + +  +   + +   + ",
"+   + +   + +   + +   + +   + +   + + +   +   + +     +     +     +       +     +     +     +   +   + +  ++ +   + +   + +   + +   + + + +  + +  +   + +   + +   + +   + +   +   +   ++++  +   + ",
"+   + +   + +   + +   + +   + +   + + +    +++  +     +     +     +       +     +     +     +   +  +  +   + +   + +   + +   + +   + +   + +   + +   + +   + +   + +   + +   +   +   +     + ++  ",
"+   + +   + +   + +   + +   + +   + + +++    +  +++++ +++++ +++++ +++++  +++   +++   +++   +++  +++   +   +  +++   +++   +++   +++   +++         +++   +++   +++   +++   +++    +   +     +     ",
"                                            +                                                                                                                                                   ",
" +       +    +    + +   + +   +++               +       +    +    + +   +       +    +    + +  + +    + +   +       +    +    + +   + +               +       +    +    + +     +         + +  ",
"  +     +    + +  + +          + +                +     +    + +          +     +    + +         +    + +     +     +    + +  + +           +       +   +     +    + +          +   +           ",
" +++   +++   +++   +++   +++   +++  ++ +   ++++  +++   +++   +++   +++   ++    ++    ++    ++   + +   ++++   +++   +++   +++   +++   +++         +++  +   + +   + +   + +   + +   + + ++  +   + ",
"    +     +     +     +     +     +   + + +     +   + +   + +   + +   +   +     +     +     +    +++  +   + +   + +   + +   + +   + +   + +++++ +  ++ +   + +   + +   + +   + +   + ++  + +   + ",
" ++++  ++++  ++++  ++++  ++++  ++++  ++++ +     +++++ +++++ +++++ +++++   +     +     +     +   +   + +   + +   + +   + +   + +   + +   +       + + + +   + +   + +   + +   + +   + +   + +   + ",
"+   + +   + +   + +   + +   + +   + + +    ++++ +     +     +     +       +     +     +     +   +   + +   + +   + +   + +   + +   + +   +   +   ++  + +   + +   + +   + +   +  ++++ ++  +  ++++ ",
" ++++  ++++  ++++  ++++  ++++  ++++ +++++    +   +++   +++   +++   +++   +++   +++   +++   +++   +++  +   +  +++   +++   +++   +++   +++         +++   ++++  ++++  ++++  ++++    +  + ++     +  ",
"                                            +                                                                                                   +                             +++   +     +++   ",
"  +    +++    +   +  +    +          +++     +   +++    +    +++    +    +++   + +  +++    + ++ +++       + +++++  +++  +++++ +  +  +++++   +   +++++       +++++  + +   +++    +    +++  +  +  ",
" + +         + +   ++    + +        +   +   +   +   +  + +  +   +       +   +   +   +  +    + + +  +    +++ +           +      ++   +           +           +       +   +   +  + +  +   +  ++   ",
"+   +  +++  +   +  +++  +   +  +++  +      ++++ +      ++++ +      ++++ +      ++++ +   +     + +   +     + +      +++  +      +++  +      +++  +      +++  +      +++  +      ++++ +      ++++ ",
"+++++     + +++++     + +++++     + +     +     +     +     +     +     +     +     +   +  ++++ ++  +  ++++ ++++  +   + ++++  +   + ++++  +   + ++++  +   + ++++  +   + +  ++ +   + +  ++ +   + ",
"+   +  ++++ +   +  ++++ +   +  ++++ +     +     +     +     +     +     +     +     +   + +   + +   + +   + +     +++++ +     +++++ +     +++++ +     +++++ +     +++++ +   + +   + +   + +   + ",
"+   + +   + +   + +   + +   + +   + +   + +     +   + +     +   + +     +   + +     +  +  +   + +  +  +   + +     +     +     +     +     +     +     +     +     +     +   +  ++++ +   +  ++++ ",
"+   +  ++++ +   +  ++++ +   +  ++++  +++   ++++  +++   ++++  +++   ++++  +++   ++++ +++    ++++ +++    ++++ +++++  +++  +++++  +++  +++++  +++  +++++  +++  +++++  +++   +++      +  +++      + ",
"                                  ++                                                                                                                     ++                   ++++        ++++  ",
" +++    +    +++    +   + + + + +   +   + +      +++   + +   +++  ++++   +++  +  +   +++    +     +         +   +  +  + + + + + + + + + + + + +       +      ++   +      ++   ++ +   ++   +     ",
"+   +       +   +   +   ++ ++ ++ +  +++++ +++     +   + +     +           +    ++     +          +++        +   +                                     +       +   +       +   + +     +   +     ",
"+      ++++ +      ++++ +   + +     +   + +       +    ++     +    ++     +    ++     +    ++     +    ++   +   +  +  + +   + +   + +   + +   + +  +  +       +   +       +   +       +   + +   ",
"+  ++ +   + +  ++ +   + +++++ ++++  +++++ ++++    +     +     +     +     +     +     +     +     +     +   +   +  +  +                         + +   +       +   +       +   +       +   +     ",
"+   + +   + +   + +   + +   + +   + +   + +   +   +     +     +     +     +     +     +     +     +     +   +   +  +  + +   + +   + +   + +   + ++    +       +   +       +   +       +   +     ",
"+   +  ++++ +   +  ++++ +   + +   + +   + +   +   +     +     +     +     +     +     +     +     +     +       +  +  +                         + +   +       +   +       +   +       +   +     ",
" +++      +  +++      + +   + +   + +   + +   +  +++   +++   +++   +++   +++   +++   +++   +++   +++   +++   +++      + + + + + + + + + + + + + +  +  +++++  +++  +++++  +++  +++++  +++  +++++ ",
"      ++++  +     ++++                                                                 ++    ++                    +++                                              +     +                     ",
" ++   +      ++   +   +   +   +   +       +   +  + +  +     +   +       + + + + + + + + + + + + + + + + + +  ++++       + + + + + + + + + + + + + + + + + +  +++     +   +++    +    +++        ",
"  +   +       +   +   +  +    +   +       +   +   +         +   +                                           + +                                             +   +   +   +   +  + +  +   +       ",
"  +   + +     ++  ++  + ++++  ++  + ++++  ++  + ++++  ++++  ++  + ++++  +   + +   + +   + +   + +   + +   + + +    +++  +   + +   + +   + +   + +   + +   + +      ++++ +      ++++ +      ++++ ",
"  + + ++     ++   + + + +   + + + + +   + + + + +   + +   + + + + +   +                                     + +++ + + +                                      +++  +      +++  +      +++  +     ",
"  +   +       +   +  ++ +   + +  ++ +   + +  ++ +   + +   + +  ++ +   + +   + +   + +   + +   + +   + +   + + +   + +++ +   + +   + +   + +   + +   + +   +     +  +++      +  +++      +  +++  ",
"  +   +       +   +   + +   + +   + +   + +   + +   + +   + +   + +   +                                     + +   + +                                       +   +     + +   +     + +   +     + ",
" +++  +++++  +++  +   + +   + + + + + + + +   + +   + +   + +   + +   + + + + + + + + + + + + + + + + + + +  ++++  ++++ + + + + + + + + + + + + + + + + + +  +++  ++++   +++  ++++   +++  ++++  ",
"                                 +     +                      ++    ++                                                                                                                +     +   ",
" +++   + +  + + + + + + + + + + + + + + + + + + + + + + + + + + + + + + + + + + + + + + + + + + + + + + + + + + + + + + + + + + + + + + + + + + + + + +++++    +  +++++   +   +++++  + +  + + + ",
"+   +   +                                                                                                                                                 +   +       +           +   +         ",
"+      ++++ +   + +   + +   + +   + +   + +   + +   + +   + +   + +   + +   + +   + +   + +   + +   + +   + +   + +   + +   + +   + +   + +   + +   +    +  +++++    +  +++++    +  +++++ +   + ",
" +++  +                                                                                                                                                 +      +    +      +    +      +        ",
"    +  +++  +   + +   + +   + +   + +   + +   + +   + +   + +   + +   + +   + +   + +   + +   + +   + +   + +   + +   + +   + +   + +   + +   + +   +  +      +    +      +    +      +   +   + ",
"+   +     +                                                                                                                                           +      +    +      +    +      +          ",
" +++  ++++  + + + + + + + + + + + + + + + + + + + + + + + + + + + + + + + + + + + + + + + + + + + + + + + + + + + + + + + + + + + + + + + + + + + + + +++++ +++++ +++++ +++++ +++++ +++++ + + + ",
"                                                                                                                                                                                                "};
