/* XPM */
static char *square_[] = {
/* columns rows colors chars-per-pixel */
"128 40 2 1",
"  c None",
"% c gray100",
/* pixels */
"         %    % %   % %          % %                                                          %  %%%%%   %   %%%%% %%%%% %   %  ",
"         %    % %   % %            %                                                          %  %   %  %%       %     % %   %  ",
"         %    % %  %%%%%          %%                                                         %%  %   %   %       %     % %   %  ",
"         %          % %           %                                            %%%%%         %   %   %   %   %%%%%  %%%% %%%%%  ",
"                   %%%%%         %%                                        %%               %%   %   %   %   %         %     %  ",
"                    % %          %                                         %%          %%   %    %   %   %   %         %     %  ",
"         %          % %          % %                                        %          %%   %    %%%%%  %%%  %%%%% %%%%%     %  ",
"                                                                           %                                                    ",
" %%%%% %%%%% %%%%% %%%%% %%%%%                                           %%%  %%%%   %%%% %%%%  %%%%  %%%%% %%%%% %   %   %     ",
" %     %         % %   % %   %  %%    %%                                %   % %   % %     %   % %     %     %     %   %   %     ",
" %     %         % %   % %   %  %%    %%        %%%%%                   %   % %   % %     %   % %     %     %     %   %   %     ",
" %%%%% %%%%%     % %%%%% %%%%%                                          %%%%% %%%%  %     %   % %%%%  %%%%  % %%% %%%%%   %     ",
"     % %   %     % %   %     %        %%        %%%%%                   %   % %   % %     %   % %     %     %   % %   %   %     ",
"     % %   %     % %   %     %  %%    %%                                %   % %   % %     %   % %     %     %   % %   %   %     ",
" %%%%% %%%%%     % %%%%% %%%%%  %%     %                                %   % %%%%   %%%% %%%%  %%%%  %     %%%%% %   %   %     ",
"                                      %                                                                                         ",
"    % %   % %     %   % %%%%  %%%%% %%%%% %%%%% %%%%% %%%%% %%%%% %   % %   % %   % %   % %   % %%%%%  %%%   %     %%%    %     ",
"    % %   % %     %% %% %   % %   % %   % %   % %   % %       %   %   % %   % %   % %   % %   %     %  %     %       %    %     ",
"    % %  %  %     % % % %   % %   % %   % %   % %   % %       %   %   % %   % %   %  % %  %   %    %   %     %%      %   %%%    ",
"    % %%%   %     %   % %   % %   % %%%%% %%  % %%%%  %%%%%   %   %   % %   % %   %   %   %%%%%   %    %      %      %   % %    ",
"    % %  %  %     %   % %   % %   % %     % % % %   %     %   %   %   % %   % % % %  % %      %  %     %      %%     %   % %    ",
"%   % %   % %     %   % %   % %   % %     %  %% %   %     %   %   %   % %   % %% %% %   %     % %      %       %     %          ",
" %%%  %   % %%%%  %   % %   % %%%%% %     %%%%% %   % %%%%%   %    %%%%  %%%  %   % %   % %%%%% %%%%%  %%%     %   %%%          ",
"                                                                                                                                ",
"             %%%  %%%%   %%%% %%%%  %%%%  %%%%% %%%%% %   %   %       % %   % %     %   % %%%%  %%%%% %%%%% %%%%% %%%%% %%%%%   ",
"            %   % %   % %     %   % %     %     %     %   %   %       % %   % %     %% %% %   % %   % %   % %   % %   % %       ",
"            %   % %   % %     %   % %     %     %     %   %   %       % %  %  %     % % % %   % %   % %   % %   % %   % %       ",
"            %%%%% %%%%  %     %   % %%%%  %%%%  % %%% %%%%%   %       % %%%   %     %   % %   % %   % %%%%% %%  % %%%%  %%%%%   ",
"            %   % %   % %     %   % %     %     %   % %   %   %       % %  %  %     %   % %   % %   % %     % % % %   %     %   ",
"            %   % %   % %     %   % %     %     %   % %   %   %   %   % %   % %     %   % %   % %   % %     %  %% %   %     %   ",
"            %   % %%%%   %%%% %%%%  %%%%  %     %%%%% %   %   %    %%%  %   % %%%%  %   % %   % %%%%% %     %%%%% %   % %%%%%   ",
"                                                                                                                                ",
"%%%%% %   % %   % %   % %   % %   % %%%%%   %%    %    %%                                                                       ",
"  %   %   % %   % %   % %   % %   %     %  %      %      %                                                                      ",
"  %   %   % %   % %   %  % %  %   %    %   %      %      %                                                                      ",
"  %   %   % %   % %   %   %   %%%%%   %   %       %       %                                                                     ",
"  %   %   % %   % % % %  % %      %  %     %      %      %                                                                      ",
"  %   %   % %   % %% %% %   %     % %      %      %      %                                                                      ",
"  %    %%%%  %%%  %   % %   % %%%%% %%%%%   %%    %    %%                                                                       ",
"                                                                                                                                ",
};
