/* XPM */
static char *_test[] = {
  "224 36 7 1",
  "  c black",
  ". c grey5",
  ": c grey20",
  "- c grey35",
  "o c grey65",
  "= c grey80",
  "x c grey100",
  " ....   .-..   .-..-  .-..- oxxxx- -....  -xxxx-  ....   ....   ....   ....   ....   ....   ....   ....   ....  -xxxx-  ....- -xxxx- -xxxx- -....- -xxxx- -xxxx- -xxxx- -xxxx- -xxxx-  .:..   .:..   ....   ....   ....  -xxxx- ",
  ". . .. . x .. . x .x . x .x x x .. x . x. =:. x. . x .. . . x. x . .. =:x x. . x .. . . .. . . .. . . .. . . x. x . ox . . .x . . .x . . .x x . .x =:. .. x . .. . . .x x . .x x . .x .:x:.. .:x:.. . . x. . . .. =:. .. x . .x ",
  "... .. ..x .. ..x .x ..x .x x.x .. xx. x. -o. x. . x .. . .-o. -o. .. -ox-o. . x .. . . .. . . .. . . .. . .-o. x..-ox ... .x ... .x ... .x x.. .x -o. .. x.. .. ... .x x.. .x x.. .x ..: .. ..: .. ...-o. ... .. -o. .. x.. .x ",
  ".... . ..x. . ..x. x ..x. x x.x. . xx.x . .x.x . ..x. . ...o-. .x.. . .=xo-. ..x. . .... . .... . .... . ...o-. x..o-x .... x .... x .... x x... x .x.. . x... . .... x x... x x... x .... . .... . ...o-. .... . .x.. . x... x ",
  ". .. . . x. . . x. x . x. x x x. . xoox . .o-x . ..x. . ...x . .o-. . .ox= . ..x. . .... . .... . .... . ...x . x .x x . .. x . .. x . .. x x .. x .o-. . x .. . . .. x x .. x x .. x . .. . . .. . . .x . . .. . .o-. . x .. x ",
  " ....   .o..   .-..- -xoxxo oxoxxo oxoxxo  .o..   .-..   .-..   .-..  -xoxx- -x-xx-  ....  -x-xx-  ....   ....  o.-..o  ....o ox-xxo  x-xxo ox-xxo  .-xxo ox-xxo  ....o ox-xxo ox-xxo  ....   ....   .-..  -x-xx-  .-..   .-xx- ",
  ".... . ..x. . .... . ..x. x ..x. x .-ox x .oox x .... . ...x . .o-. . .ox= . ..x. . .... . .... . .... . .o-. . xo-. x .... x x... . .... x .... x .... x x... x .... x x... x .... x .... . .... . .o-. . .... . ...x . ..x. . ",
  ".... . ..x. . .... . ..x. x ..x. x .o-o-x .x.o-x .... . ...o-. .x.. . .=xo-. ..x. . .... . .... . .... . .x.. . xx.. x .... x x... . .... x .... x .... x x... x .... x x... x .... x .... . .... . .x.. . .... . ...o-. ..x. . ",
  ". . .. . x .. . . .. . x .x . x .x -o.-ox -o.-ox . . .. . .-o. -o. .. -ox-o. . x .. . : .. . . .. . : .. -o. .. xo. .x . . .x x . .. . . .x . . .x . . .x x . .x . . .x x . .x . . .x . : .. . : .. -o. .. . . .. . .-o. . x .. ",
  ". . .. . x .. . . .. . x .x . x .x x . ox x . ox . . .. . . x. x . .. =:x x. . x .. .:x:.. . . .. .:x:.. =:. .. x . .x . . .x x . .. . . .x . . .x . . .x x . .x . . .x x . .x . . .x .:x:.. .:x:.. x . .. . . .. . . x. . x .. ",
  " ....   .-..   ....  -xxxxo -xxxxo  ....- -xxxxo  ....   ....   ....   ....   ....   o=..   ....   .:..   ....  -xxxx-  ....- -xxxx- -xxxx-  ....- -xxxx- -xxxx-  ....- -xxxx- -xxxx-  .:..   o=..  -xxxx- -xxxx- -xxxx-  ....  ",
  "                                                                                                                                                                                                                                ",
  "-xxxx- -xxxx- -xxxx- -xxxx- -xxxx- -xxxx- -xxxx- -xxxx- -....- -xxxx-  ....- -....  -....  -....- -....- -xxxx- -xxxx- -xxxx- -xxxx- -xxxx- -xxxx- -....- -....  -....-  ....   ....  -xxxx- -xxxx-  ....  -xxxx- -xxxx-  ....  ",
  "x x .x x . .x . x .x x . .. . x .x x . .. x . .. x . .. x . .x . x .. . . .x x . x. x . .. x . ox x . .x x . .x x . .x x . .x x . .x x . .. . x .. x . .x x . x. x . .x =:. x. =:. x. . . x. x . .. =:. .. . . .x . . ox . . .. ",
  "x.x .x x.. .x ..x .x x.. .. ..x .x x.. .. x.. .. x.. .. x.. .x ..x .. ... .x x..-o. x.. .. xo.-ox xo. .x x.. .x x.. .x x.. .x x.. .x x.. .. ..x .. x.. .x x.. x. x.. .x -o.-o. -o.-o. ...-o. x.. .. -o. .. ... .x ...-ox ... .. ",
  "x.x. x x... x ..x. x x... . ..x. x x... . x... . x... . x... x ..x. . .... x x..o-. x... . xx.o-x xx.. x x... x x... x x... x x... x x... . ..x. . x... x x..x . x... x .x.o-. .x.o-. ...o-. x... . .x.. . .... x ...o-x .... . ",
  "x x. x x .. x . x. x x .. . . x. x x .. . x .. . x .. . x .. x . x. . . .. x x .x . x .. . xoox x xo-. x x .. x x .. x x .. x x .. x x .. . . x. . x .. x x .x . x .. x .o-x . .o-x . . .x . x .. . .o-. . . .. x . .x x . .. . ",
  "o.-xxo ox-xxo  .-xxo o....   .-..o ox-xx- ox-xx- o..xxo ox-xxo  .-..   ....o oxo..  o....  o....o o.-..o o....o ox-xxo o....o ox-xxo ox-xxo  .-..  o....o o.-..  o....o  .o..   .o..   .-..  o....   .-..   ....o  .-..-  ....  ",
  "x... . x... x ..x. x x... . ..x. x x... . x... . x... x x... x ..x. . x... x x..x . x... . x... x x..x x x... x x... . x..x x x..x . .... x ..x. . x... x xx.. . xx.x x .o-x . ..x. . .o-. . x... . ...x . .... x .o-. . .... . ",
  "x... . x... x ..x. x x... . ..x. x x... . x... . x... x x... x ..x. . x... x x..o-. x... . x... x x..o-x x... x x... . x..o-x x..o-. .... x ..x. . x... x xx.. . xx.o-x .x.o-. ..x. . .x.. . x... . ...o-. .... x .x.. . .... . ",
  "x . .. x . .x . x .x x . .. . x .x x . .. x . .. x . .x x . .x . x .. x . .x x .-o. x . .. x . .x x .-ox x . .x x . .. x .-ox x .-o. . . .x . x .. x . .x xo. .. xo.-ox -o.-o. . x .. -o. .. x . .. . .-o. . . .x -o. .. . . .. ",
  "x . .. x . .x . x .x x . .. . x .x x . .. x . .. x . .x x . .x . x .. x . .x x . x. x . .. x . .x x . ox x . .x x . .. x . ox x . x. . . .x . x .. x . .x x . .. x . ox =:. x. . x .. x . .. x . .. . . x. . . .x =:. .. . . .. ",
  "-xxxx- -....- -xxxx- -xxxx- -xxxx- -xxxx- -....  -xxxx- -....- -xxxx- -xxxx- -....  -xxxx- -....- -....- -xxxx- -....  -xxxx- -....  -xxxx-  ....  -xxxx- -....  -....-  ....   ....  -xxxx- -xxxx-  ....  -xxxx-  ....  -xxxx- ",
  "                                                                                                                                                                                                                                ",
  " ....  -xxxx- -xxxx- -xxxx- -xxxx- -xxxx- -xxxx- -xxxx- -....- -xxxx-  ....- -....  -....  -....- -....- -xxxx- -xxxx- -xxxx- -xxxx- -xxxx- -xxxx- -....- -....  -....-  ....   ....  -xxxx-  ....   ....   ....  o....  -xxxx- ",
  "=:. .. x . .x . x .x x . .. . x .x x . .. x . .. x . .. x . .x . x .. . . .x x . x. x . .. x . ox x . .x x . .x x . .x x . .x x . .x x . .. . x .. x . .x x . x. x . .x =:. x. =:. x. . . x. . x .. . x .. . x .. x . x. x:x ox ",
  "-o. .. x.. .x ..x .x x.. .. ..x .x x.. .. x.. .. x.. .. x.. .x ..x .. ... .x x.. x. x.. .. xo. xx xo. .x x.. .x x.. .x x.. .x x.. .x x.. .. ..x .. x.. .x x..-o. x.. .x -o.-o. -o.-o. ...-o. . x .. . x .. . x .. x-.-o. xox-ox ",
  ".x.. . x... x ..x. x x... . ..x. x x... . x... . x... . x... x ..x. . .... x x..x . x... . xx.x x xx.. x x... x x... x x... x x... x x... . ..x. . x... x x..o-. x... x .x.o-. .x.o-. ...o-. ..x. . ..x. . ..x. . xx.o-. xxxo-x ",
  ".o-. . x .. x . x. x x .. . . x. x x .. . x .. . x .. . x .. x . x. . . .. x x .x . x .. . xoox x xo-. x x .. x x .. x x .. x x .. x x .. . . x. . x .. x x .x . x .. x .o-x . .o-x . . .x . ..x. . ..x. . ..x. . xo-x . x-xo x ",
  " ....  ox-xxo  .-xxo o....   .-..o ox-xx- ox-xx- o..xxo ox-xxo  .-..   ....o oxo..  o....  o....o o.-..o o....o ox-xxo o....o ox-xxo ox-xxo  .-..  o....o o.-..  o....o  .o..   .o..   .-..  -x-..   .-..   .-xx- -....  oxoxxo ",
  ".... . x... x ..x. x x... . ..x. x x... . x... . x... x x... x ..x. . x... x x..x . x... . x... x x..x x x... x x... . x..x x x..x . .... x ..x. . x... x xo-. . xx.x x .o-x . ..x. . .o-. . ..x. . ..x. . ..x. . .... . x-xo x ",
  ".... . x... x ..x. x x... . ..x. x x... . x... . x... x x... x ..x. . x... x x..x . x... . x... x x..x x x... x x... . x..o-x x..o-. .... x ..x. . x... x xx.. . xx.o-x .x.o-. ..x. . .x.. . ..x. . ..x. . ..x. . .... . xxxo-x ",
  ". . .. x . .x . x .x x . .. . x .x x . .. x . .. x . .x x . .x . x .. x . .x x . x. x . .. x . .x x . xx x . .x x . .. x .-ox x .-o. . . .x . x .. x . .x x:. .. x .-ox -o.-o. . x .. -o. .. . x .. . x .. . x .. . . .. xox-ox ",
  ". . .. x . .x . x .x x . .. . x .x x . .. x . .. x . .x x . .x . x .. x . .x x . x. x . .. x . .x x . ox x . .x x . .. x . ox x . x. . . .x . x .. x . .x x . .. x . ox =:. x. . x .. x . .. . x .. . x .. . x .. . . .. x:x ox ",
  " ....  -....- -xxxx- -xxxx- -xxxx- -xxxx- -....  -xxxx- -....- -xxxx- -xxxx- -....  -xxxx- -....- -....- -xxxx- -....  -xxxx- -....  -xxxx-  ....  -xxxx- -....  -....-  ....   ....  -xxxx-  ....   ....   ....   ....  -xxxx- ",
  "                                                                                                                                                                                                                                ",
};
