/* XPM */
static char *_x_zx[] = {
/* columns rows colors chars-per-pixel */
"224 24 2 1",
"  c black",
"% c gray100",
/* pixels */
"                                                                                                                                                                                                                                ",
"         %     %  %    %%%     %   %%   %   %       %        %  %                                                %%%%    %%    %%%%   %%%%     %   %%%%%%  %%%%  %%%%%%  %%%%   %%%%                                      %%%%  ",
"         %     %  %   %   %  %%%%% %%  %   % %     %        %    %      % %     %                             % %   %%  % %   %    % %    %   %%   %      %           % %    % %    %          %        %          %     %    % ",
"         %           %%%%    % %      %     %               %    %       %      %                            %  %  % %    %        %    %%   % %   %%%%%  %%%%%      %   %%%%  %    %   %              %    %%%%%   %        %  ",
"         %            %      %%%%%   %     % % %            %    %     %%%%%  %%%%%         %%%%%           %   % %  %    %    %%%%       % %  %        % %    %    %   %    %  %%%%%                 %              %      %   ",
"                      %        % %  %  %% %   %             %    %       %      %      %            %%     %    %%   %    %   %      %    % %%%%%% %    % %    %   %    %    %      %          %       %    %%%%%   %           ",
"         %           %%%%%%  %%%%% %   %%  %%% %             %  %       % %     %      %            %%    %      %%%%   %%%%% %%%%%%  %%%%     %    %%%%   %%%%    %     %%%%   %%%%    %      %        %          %        %   ",
"                               %                                                      %                                                                                                       %                                 ",
"                                                                                                                                                                                                                                ",
" %%%%   %%%%  %%%%%   %%%%  %%%%   %%%%%% %%%%%%  %%%%  %    %  %%%%%      % %   %  %      %    % %    %  %%%%  %%%%%   %%%%  %%%%%   %%%%  %%%%%%%%    % %    % %    % %    % %     %%%%%%%    %%%         %%%      %          ",
"%  % % %    % %    % %    % %   %  %      %      %    % %    %    %        % %  %   %      %%  %% %%   % %    % %    % %    % %    % %         %   %    % %    % %    %  %  %   %   %     %     %    %        %     %%%         ",
"% % %% %    % %%%%%  %      %    % %%%%%  %%%%%  %      %%%%%%    %        % %%%    %      % %% % % %  % %    % %    % %    % %    %  %%%%     %   %    % %    % %    %   %%     % %     %      %     %       %    % % %        ",
"% %%%% %%%%%% %    % %      %    % %      %      %  %%% %    %    %   %    % %  %   %      %    % %  % % %    % %%%%%  % %  % %%%%%       %    %   %    % %    % %    %   %%      %     %       %      %      %      %          ",
"%      %    % %    % %    % %   %  %      %      %    % %    %    %   %    % %   %  %      %    % %   %% %    % %      %  % % %   %  %    %    %   %    %  %  %  % %% %  %  %     %    %        %       %     %      %          ",
" %%%%  %    % %%%%%   %%%%  %%%%   %%%%%% %       %%%%  %    %  %%%%%  %%%%  %    % %%%%%% %    % %    %  %%%%  %       %%%%  %    %  %%%%     %    %%%%    %%    %  %  %    %    %   %%%%%%    %%%      %  %%%      %          ",
"                                                                                                                                                                                                                         %%%%%%%",
"                                                                                                                                                                                                                                ",
"  %            %                %            %%         %        %        %   %       %                                                        %                                                %%%    %    %%%     % %         ",
"   %    %%%    %       %%%      %   %%%     %     %%%%% %                     % %     %    %% %   %%%%    %%%   %%%%    %%%%    %%%   %%%     %%%  %   %  %   %  %   %  %   %  %   %  %%%%%     %      %      %    % %          ",
"           %   %%%%   %      %%%%  %   %    %%   %    % %%%%    %%        %   %%      %    % % %  %   %  %   %  %   %  %   %   %     %         %   %   %  %   %  % % %   % %   %   %     %    %%       %       %%               ",
"        %%%%   %   %  %     %   %  %%%%     %    %    % %   %    %        %   %%      %    % % %  %   %  %   %  %   %  %   %   %      %%%      %   %   %   % %   % % %    %    %   %    %       %      %      %                 ",
"       %   %   %   %  %     %   %  %        %     %%%%% %   %    %        %   % %     %    % % %  %   %  %   %  %%%%    %%%%   %         %     %   %   %   % %   % % %   % %    %%%%   %        %      %      %                 ",
"        %%%%   %%%%    %%%   %%%%   %%%%    %         % %   %   %%%    %  %   %  %     %%  % % %  %   %   %%%   %          %   %     %%%%       %%  %%%     %     % %   %   %      %  %%%%%     %%%    %    %%%                 ",
"                                                  %%%%                  %%                                      %          %%                                                   %%%                                             ",
"                                                                                      ",                                                                                                                                        
};
