/* XPM */
static char *_test[] = {
  "128 72 5 1",
  "  c None",
  ". c grey95",
  "x c black",
  "o c grey45",
  "- c grey65",
  " .....   ..-..   ..-..-  ..-..- oxxxxx- -.....  -xxxxx-  .....   .....   .....   .....   .....   .....   .....   .....   .....  ",
  ".. . .. .. x .. .. x .x .. x .x x. x .. xo . x. .x . x. .. x .. .. . x. .x . .. .x x x. .. x .. .. . .. .. . .. .. . .. .. . x. ",
  ".. . .. .. x .. .. x .x .. x .x x. x .. xx . x. .x . x. .. x .. .. . x. .x . .. .x x x. .. x .. .. . .. .. . .. .. . .. .. . x. ",
  ". ... . . .x. . . .x. x . .x. x x .x. . x x.x . . x.x . . .x. . . ..x . . x.. . .--x--. . .x. . . ... . . ... . . ... . . ..x . ",
  ". ... . . .x. . . .x. x . .x. x x .x. . x x.x . . x.x . . .x. . . ..x . . x.. . . oxo . . .x. . . ... . . ... . . ... . . ..x . ",
  " .....   ..o..   ..-..- -xxoxxo oxxoxxo oxxoxxo  ..o..   ..-..   ..-..   ..-..  -xxoxx- -xx-xx-  .....  -xx-xx-  .....   .....  ",
  ". ... . . .x. . . ... . . .x. x . .x. x . x.x x . x.x x . ... . . ..x . . x.. . . oxo . . .x. . . ... . . ... . . ... . . x.. . ",
  ". ... . . .x. . . ... . . .x. x . .x. x . x.x x . x.x x . ... . . ..x . . x.. . .--x--. . .x. . . ... . . ... . . ... . . x.. . ",
  ".. . .. .. x .. .. . .. .. x .x .. x .x .x . xx .x . xx .. . .. .. . x. .x . .. .x x x. .. x .. .. . .. .. . .. .. . .. .x . .. ",
  ".. . .. .. x .. .. . .. .. x .x .. x .x .x . ox .x . ox .. . .. .. . x. .x . .. .x x x. .. x .. .. x .. .. . .. .. x .. .x . .. ",
  " .....   ..-..   .....  -xxxxxo -xxxxxo  .....- -xxxxxo  .....   .....   .....   .....   .....   .-o..   .....   .....   .....  ",
  "                                                                                                                                ",
  "-xxxxx-  .....- -xxxxx- -xxxxx- -.....- -xxxxx- -xxxxx- -xxxxx- -xxxxx- -xxxxx-  .....   .....   .....   .....   .....  -xxxxx- ",
  "x. . ox .. . .x .. . .x .. . .x x. . .x .x . .. x. . .. .. . .x x. . .x x. . .x .. . .. .. . .. .. . x. .. . .. .x . .. x. . .x ",
  "x. . xx .. . .x .. . .x .. . .x x. . .x .x . .. x. . .. .. . .x x. . .x x. . .x .. . .. .. . .. .. . x. .. . .. .x . .. x. . .x ",
  "x ..x x . ... x . ... x . ... x x ... x . x.. . x ... . . ... x x ... x x ... x . ... . . ... . . ..x . . ... . . x.. . x ... x ",
  "x ..x x . ... x . ... x . ... x x ... x . x.. . x ... . . ... x x ... x x ... x . ... . . ... . . ..x . . ... . . x.. . x ... x ",
  "o..-..o  .....o oxx-xxo  xx-xxo oxx-xxo  ..-xxo oxx-xxo  .....o oxx-xxo oxx-xxo  ..x..   ..x..   ..-..  -xx-xx-  ..-..   ..-xx- ",
  "x x.. x . ... x x ... . . ... x . ... x . ... x x ... x . ... x x ... x . ... x . ... . . ... . . x.. . . ... . . ..x . . .x. . ",
  "x x.. x . ... x x ... . . ... x . ... x . ... x x ... x . ... x x ... x . ... x . ... . . ... . . x.. . . ... . . ..x . . .x. . ",
  "xx . .x .. . .x x. . .. .. . .x .. . .x .. . .x x. . .x .. . .x x. . .x .. . .x .. . .. .. . .. .x . .. .. . .. .. . x. .. x .. ",
  "xo . .x .. . .x x. . .. .. . .x .. . .x .. . .x x. . .x .. . .x x. . .x .. . .x .. x .. .. x .. .x . .. .. . .. .. . x. .. x .. ",
  "-xxxxx-  .....- -xxxxx- -xxxxx-  .....- -xxxxx- -xxxxx-  .....- -xxxxx- -xxxxx-  .....   .-o..  -xxxxx- -xxxxx- -xxxxx-  .....  ",
  "                                                                                                                                ",
  "-xxxxx- -xxxxx- -xxxxx- -xxxxx- -xxxxx- -xxxxx- -xxxxx- -xxxxx- -.....- -xxxxx-  .....- -.....  -.....  o.....o o.....o oxxxxxo ",
  "x. x .x x. . .x .. x .x x. . .. .. x .x x. . .. x. . .. x. . .. x. . .x .. x .. .. . .x x. . x. x. . .. xo . ox xo . .x x. . .x ",
  "x. x .x x. . .x .. x .x x. . .. .. x .x x. . .. x. . .. x. . .. x. . .x .. x .. .. . .x x. . x. x. . .. xx . xx xx . .x x. . .x ",
  "x .x. x x ... x . .x. x x ... . . .x. x x ... . x ... . x ... . x ... x . .x. . . ... x x ..x . x ... . x x.x x x x.. x x ... x ",
  "x .x. x x ... x . .x. x x ... . . .x. x x ... . x ... . x ... . x ... x . .x. . . ... x x ..x . x ... . x x.x x x x.. x x ... x ",
  "o..-xxo oxx-xxo  ..-xxo o.....   ..-..o oxx-xx- oxx-xx- o...xxo oxx-xxo  ..-..   .....o oxxo..  o.....  o.....o o..-..o o.....o ",
  "x ... . x ... x . .x. x x ... . . .x. x x ... . x ... . x ... x x ... x . .x. . x ... x x ..x . x ... . x ... x x ..x x x ... x ",
  "x ... . x ... x . .x. x x ... . . .x. x x ... . x ... . x ... x x ... x . .x. . x ... x x ..x . x ... . x ... x x ..x x x ... x ",
  "x. . .. x. . .x .. x .x x. . .. .. x .x x. . .. x. . .. x. . .x x. . .x .. x .. x. . .x x. . x. x. . .. x. . .x x. . xx x. . .x ",
  "x. . .. x. . .x .. x .x x. . .. .. x .x x. . .. x. . .. x. . .x x. . .x .. x .. x. . .x x. . x. x. . .. x. . .x x. . ox x. . .x ",
  "-xxxxx- -.....- -xxxxx- -xxxxx- -xxxxx- -xxxxx- -.....  -xxxxx- -.....- -xxxxx- oxxxxxo -.....  oxxxxx- -.....- -.....o oxxxxxo ",
  "                                                                                                                                ",
  "-xxxxx- -xxxxx- -xxxxx- -xxxxx- -xxxxx- -.....- -.....  -.....-  .....   .....  -xxxxx- -xxxxx-  .....  -xxxxx- -xxxxx-  .....  ",
  "x. . .x x. . .x x. . .x x. . .. .. x .. x. . .x x. . x. x. . .x .x . x. .x . x. .. . x. x. . .. .x . .. .. . .x .. . ox .. . .. ",
  "x. . .x x. . .x x. . .x x. . .. .. x .. x. . .x x. . x. x. . .x .x . x. .x . x. .. . x. x. . .. .x . .. .. . .x .. . xx .. . .. ",
  "x ... x x ... x x ... x x ... . . .x. . x ... x x ..x . x ... x . x.x . . x.x . . ..x . x ... . . x.. . . ... x . ..x x . ... . ",
  "x ... x x ... x x ... x x ... . . .x. . x ... x x ..x . x ... x . x.x . . x.x . . ..x . x ... . . x.. . . ... x . ..x x . ... . ",
  "oxx-xxo o.....o oxx-xxo oxx-xxo  ..-..  o.....o o..-..  o.....o  ..o..   ..o..   ..-..  o.....   ..-..   .....o  ..-..-  .....  ",
  "x ... . x ..x x x ..x . . ... x . .x. . x ... x x x.. . x x.x x . x.x . . .x. . . x.. . x ... . . ..x . . ... x . x.. . . ... . ",
  "x ... . x ..x x x ..x . . ... x . .x. . x ... x x x.. . x x.x x . x.x . . .x. . . x.. . x ... . . ..x . . ... x . x.. . . ... . ",
  "x. . .. x. . xx x. . x. .. . .x .. x .. x. . .x xx . .. xx . xx .x . x. .. x .. .x . .. x. . .. .. . x. .. . .x .x . .. .. . .. ",
  "x. . .. x. . ox x. . x. .. . .x .. x .. x. . .x xo . .. xo . ox .x . x. .. x .. .x . .. x. . .. .. . x. .. . .x .x . .. .. . .. ",
  "-.....  -xxxxx- -.....  -xxxxx-  .....  -xxxxx- -.....  -.....-  .....   .....  -xxxxx- -xxxxx-  .....  -xxxxx-  .....  -xxxxx- ",
  "                                                                                                                                ",
  " .....  -xxxxx- -xxxxx- -xxxxx- -xxxxx- -xxxxx- -xxxxx- -xxxxx- -.....- -xxxxx-  .....- -.....  -.....  -.....- -.....- -xxxxx- ",
  ".x . .. x. . .x .. x .x x. . .. .. x .x x. . .. x. . .. x. . .. x. . .x .. x .. .. . .x x. . x. x. . .. xo . ox xo . .x x. . .x ",
  ".x . .. x. . .x .. x .x x. . .. .. x .x x. . .. x. . .. x. . .. x. . .x .. x .. .. . .x x. . x. x. . .. xx . xx xx . .x x. . .x ",
  ". x.. . x ... x . .x. x x ... . . .x. x x ... . x ... . x ... . x ... x . .x. . . ... x x ..x . x ... . x x.x x x x.. x x ... x ",
  ". x.. . x ... x . .x. x x ... . . .x. x x ... . x ... . x ... . x ... x . .x. . . ... x x ..x . x ... . x x.x x x x.. x x ... x ",
  " .....  oxx-xxo  ..-xxo o.....   ..-..o oxx-xx- oxx-xx- o...xxo oxx-xxo  ..-..   .....o oxxo..  o.....  o.....o o..-..o o.....o ",
  ". ... . x ... x . .x. x x ... . . .x. x x ... . x ... . x ... x x ... x . .x. . x ... x x ..x . x ... . x ... x x ..x x x ... x ",
  ". ... . x ... x . .x. x x ... . . .x. x x ... . x ... . x ... x x ... x . .x. . x ... x x ..x . x ... . x ... x x ..x x x ... x ",
  ".. . .. x. . .x .. x .x x. . .. .. x .x x. . .. x. . .. x. . .x x. . .x .. x .. x. . .x x. . x. x. . .. x. . .x x. . xx x. . .x ",
  ".. . .. x. . .x .. x .x x. . .. .. x .x x. . .. x. . .. x. . .x x. . .x .. x .. x. . .x x. . x. x. . .. x. . .x x. . ox x. . .x ",
  " .....  -.....- -xxxxx- -xxxxx- -xxxxx- -xxxxx- -.....  -xxxxx- -.....- -xxxxx- -xxxxx- -.....  -xxxxx- -.....- -.....- -xxxxx- ",
  "                                                                                                                                ",
  "-xxxxx- -xxxxx- -xxxxx- -xxxxx- -xxxxx- -.....- -.....  -.....-  .....   .....  -xxxxx-  .....   .....   .....  o.....  -xxxxx- ",
  "x. . .x x. . .x x. . .x x. . .. .. x .. x. . .x x. . x. x. . .x .x . x. .x . x. .. . x. .. x .. .. x .. .. x .. xo . x. xo x ox ",
  "x. . .x x. . .x x. . .x x. . .. .. x .. x. . .x x. . x. x. . .x .x . x. .x . x. .. . x. .. x .. .. x .. .. x .. xx . x. xx x xx ",
  "x ... x x ... x x ... x x ... . . .x. . x ... x x ..x . x ... x . x.x . . x.x . . ..x . . .x. . . .x. . . .x. . x x.x . x xxx x ",
  "x ... x x ... x x ... x x ... . . .x. . x ... x x ..x . x ... x . x.x . . x.x . . ..x . . .x. . . .x. . . .x. . x x.x . x oxo x ",
  "oxx-xxo o.....o oxx-xxo oxx-xxo  ..-..  o.....o o..-..  o.....o  ..o..   ..o..   ..-..  -xx-..   ..-..   ..-xx- -.....  oxxoxxo ",
  "x ... . x ..x x x ..x . . ... x . .x. . x ... x x x.. . x x.x x . x.x . . .x. . . x.. . . .x. . . .x. . . .x. . . ... . x oxo x ",
  "x ... . x ..x x x ..x . . ... x . .x. . x ... x x x.. . x x.x x . x.x . . .x. . . x.. . . .x. . . .x. . . .x. . . ... . x xxx x ",
  "x. . .. x. . xx x. . x. .. . .x .. x .. x. . .x xx . .. xx . xx .x . x. .. x .. .x . .. .. x .. .. x .. .. x .. .. . .. xx x xx ",
  "x. . .. x. . ox x. . x. .. . .x .. x .. x. . .x xo . .. xo . ox .x . x. .. x .. .x . .. .. x .. .. x .. .. x .. .. . .. xo x ox ",
  "-.....  -xxxxx- -.....  -xxxxx-  .....  -xxxxx- -.....  -.....-  .....   .....  -xxxxx-  .....   .....   .....   .....  -xxxxx- ",
  "                                                                                                                                ",
};
