/* XPM */
static char *_8x8cholo_[] = {
/* columns rows colors chars-per-pixel */
"256 24 2 1",
". c gray100",
"  c black",
/* pixels */
"          ...     .  .              .   ...       ...       .       .      .       .                                              ....     .     .....   ......     ..   ......  .       ......   ....   .....                      ..            ..      ....  ",
"          . .     .  .    .  .    ....... .   .  .   .     .       .        .    . . .      .                                .   .    .   ..          .      .     .     .    .  .            .   .  .   .    .                    . .            . .    .    . ",
"          . .     .  .   ......  .  .   ...  .   .   .    .       .          .    ...       .                               .    .  . .    .          .     .     .      .       .           .    .  .   .    .     .       .     .  .   ......   .  .       .  ",
"           .              .  .    .....     .     ...             .          .     .      .....          ......            .     . .  .    .      ....     ...   .   .    ....   .....      .     ....    .....     .       .    .   .            .   .    ..   ",
"           .              .  .      .  .   .     .   . .          .          .    ...       .                             .      .    .    .     .            .  ......       .  .    .    .     .    .       .                   .  .   ......   .  .     .    ",
"                         ...... .......   .  ... .    .            .        .    . . .      .       .              ..    .       .    .    .  .  .    .  .    .      .        .  .    .    .     .    .       .     .       .      . .            . .           ",
"           .              .  .      .    .   . .  .... .            .      .       .                .              ..             ....   ......  ......   .....      .   .....    .....    .     ......       .     .       .       ..            ..       .    ",
"                                             ...                                                   .                                                                                                                       .                                    ",
"   ..      ..    ....      ...   ....    ......  ......    ...   .    .  .....    .....  .   .   .       .    .  .    .    ..    .....     ..    .....    ....   .....   .    .  .    .  .     . .    .  .   .   ......   ....            ....     .            ",
"  .  .    .  .   .   .    .       .  .   .       .        .   .  .    .    .         .   .   .   .       ..  ..  .    .   .  .   .    .   .  .   .    .  .    .    .     .    .  .    .  .     . .    .  .   .   .    .   .      .           .    ...           ",
" .  ...  .    .  .   .   .        .   .  .       .       .       .    .    .         .   .   .   .       . .. .  ..   .  .    .  .    .  ..   .  .    .   .        .     .    .  .    .  .     .  .  .    . .        .    .       .          .   . . .          ",
" .  . .  ......  .....   .        .   .  ....    ....    .  ...  ......    .         .   ....    .       .    .  . .  .  .    .  .....   . .  .  .....     ..      .     .    .  .    .  .     .   ..      .        .     .        .         .     .            ",
" .  ...  .    .  .    .  .        .   .  .       .       .    .  .    .    .         .   .   .   .       .    .  .  . .  .    .  .       .  . .  .  .        .     .     .    .  .    .  .  .  .  .  .     .       .      .         .        .     .            ",
"  .      .    .  .    .   .       .  .   .    .  .       .    .  .    .    .     .   .   .    .  .    .  .    .  .   ..   .  .   .        .  .   .   .   .    .    .     .    .   .  .   . . . . .    .    .      .   .   .          .       .     .            ",
"   ..    .    .  .....     ...   ....    ......  .        ....   .    .. .....    ....   .    .  ......  .    .. .    .    ..    .         .. .  .   .    ....     .      ....     ..    ..   .. .    .    ..    ......   ....            ....    ...           ",
"                                                                                                                                                                                                                                                        ........",
"   .             ..                  ..             ..           .          .       .    ..        ..                                                              .                                                             ......   ....     ..   ........",
"  . .            .                    .            .             .                       .          .                                                              .                                                    ....... ..    .. .    .   .  .  .      .",
"  . .     ...    .....     ...    .....   ....     .      .....  .          .     ...    .   .      .    .....   ....      ..    ....     ....    ....    .....  .....   .   .   .   .   .     . .   .   .   .   .....  .     . . .  . ..      . .    . .      .",
" .   .       .   .    .   .      .    .  .    .  .....   .    .  ....       .       .    .  .       .    .  . .  .   .    .  .   .   .   .   .   .       .         .     .   .   .   .   .  .  .  . .    .   .      .    .   .  .  ..  ..      ..      ..      .",
" .   .    ....   .    .  .       .    .  ......    .     .    .  .   .      .       .    ...        .    .  . .  .   .   .    .  .   .   .   .   .        ....     .     .   .   .   .   .  .  .   .     .   .     .     .   .  .  ..  ..      ..      ..      .",
".     .  .   .   .    .  .       .    .  .         .      .....  .    .     .       .    .  .       .    .    .  .   .    .  .   ....     ....   .            .    .     .   .    . .    .  .  .  . .     ....    .  .    . .   . .  . ..      . .    . .      .",
".......  ......  .....    ....    .....  .....     .         .   .    .     ..     .     .   .      ..   .    .  .   .     ..    .           .   .       ......     ..    ....     .     ......  .   .       .   .....    . .   ..    .. .    .   .  .  .      .",
"                                                         ....                    ..                                              .           ..                                                           ....             .     ......   ....     ..   ........"
};
