/* XPM */
static char *c___low[] = {
/* columns rows colors chars-per-pixel */
"128 48 2 1",
"% c black",
"  c gray100",
/* pixels */
"           %%    %%  %%  %%  %%    %%    %%   %   %%%%       %%     %%    %%                                                    ",
"           %%    %%  %%  %%  %%   %%%%%  %%  %%  %%  %%     %%     %%      %%    %%  %%    %%                                 %%",
"           %%    %%  %% %%%%%%%% %%         %%    %%%%     %%     %%        %%    %%%%     %%                                %% ",
"           %%            %%  %%   %%%%     %%     %%%             %%        %%  %%%%%%%% %%%%%%          %%%%%%             %%  ",
"                        %%%%%%%%     %%   %%     %%  %%%          %%        %%    %%%%     %%                              %%   ",
"                         %%  %%  %%%%%   %%  %%  %%  %%            %%      %%    %%  %%    %%      %%              %%     %%    ",
"           %%            %%  %%    %%    %   %%   %%%%%%            %%    %%                       %%              %%    %%     ",
"                                                                                                  %%                            ",
"  %%%%     %%     %%%%    %%%%       %%  %%%%%%   %%%%   %%%%%%   %%%%    %%%%                      %%%          %%%      %%%%  ",
" %%  %%    %%    %%  %%  %%  %%     %%%  %%      %%  %%  %%  %%  %%  %%  %%  %%                    %%              %%    %%  %% ",
" %% %%%   %%%        %%      %%    %%%%  %%%%%   %%         %%   %%  %%  %%  %%    %%      %%     %%     %%%%%%     %%       %% ",
" %%% %%    %%       %%     %%%   %%  %%      %%  %%%%%     %%     %%%%    %%%%%                  %%                  %%     %%  ",
" %%  %%    %%     %%         %%  %%%%%%%     %%  %%  %%    %%    %%  %%      %%                   %%     %%%%%%     %%     %%   ",
" %%  %%    %%    %%      %%  %%      %%  %%  %%  %%  %%    %%    %%  %%  %%  %%    %%      %%      %%              %%           ",
"  %%%%   %%%%%%  %%%%%%   %%%%       %%   %%%%    %%%%     %%     %%%%    %%%%             %%       %%%          %%%       %%   ",
"                                                                                          %%                                    ",
"  %%%%     %%    %%%%%    %%%%   %%%%    %%%%%%  %%%%%%   %%%%   %%  %%   %%%%     %%%%  %%  %%  %%      %%   %% %%  %%   %%%%  ",
" %%  %%   %%%%   %%  %%  %%  %%  %% %%   %%      %%      %%  %%  %%  %%    %%       %%   %% %%   %%      %%% %%% %%% %%  %%  %% ",
" %% %%%  %%  %%  %%  %%  %%      %%  %%  %%      %%      %%      %%  %%    %%       %%   %%%%    %%      %%%%%%% %%%%%%  %%  %% ",
" %% %%%  %%%%%%  %%%%%   %%      %%  %%  %%%%    %%%%    %% %%%  %%%%%%    %%       %%   %%%     %%      %% % %% %%%%%%  %%  %% ",
" %%      %%  %%  %%  %%  %%      %%  %%  %%      %%      %%  %%  %%  %%    %%       %%   %%%%    %%      %%   %% %% %%%  %%  %% ",
" %%   %  %%  %%  %%  %%  %%  %%  %% %%   %%      %%      %%  %%  %%  %%    %%    %% %%   %% %%   %%      %%   %% %%  %%  %%  %% ",
"  %%%%   %%  %%  %%%%%    %%%%   %%%%    %%%%%%  %%       %%%%   %%  %%   %%%%    %%%    %%  %%  %%%%%%  %%   %% %%  %%   %%%%  ",
"                                                                                                                                ",
" %%%%%    %%%%   %%%%%    %%%%   %%%%%%  %%  %%  %%  %%  %%   %% %%  %%  %%  %%  %%%%%%   %%%%            %%%%                  ",
" %%  %%  %%  %%  %%  %%  %%  %%    %%    %%  %%  %%  %%  %%   %% %%  %%  %%  %%      %%   %%     %%         %%     %%           ",
" %%  %%  %%  %%  %%  %%  %%        %%    %%  %%  %%  %%  %%   %%  %%%%   %%  %%     %%    %%      %%        %%    %%%%          ",
" %%%%%   %%  %%  %%%%%    %%%%     %%    %%  %%  %%  %%  %% % %%   %%     %%%%     %%     %%       %%       %%   %%  %%         ",
" %%      %%  %%  %%%%        %%    %%    %%  %%  %%  %%  %%%%%%%  %%%%     %%     %%      %%        %%      %%                  ",
" %%       %%%%   %% %%   %%  %%    %%    %%  %%   %%%%   %%% %%% %%  %%    %%    %%       %%         %%     %%                  ",
" %%         %%%  %%  %%   %%%%     %%     %%%%     %%    %%   %% %%  %%    %%    %%%%%%   %%%%        %%  %%%%          %%%%%%%%",
"                                                                                                                                ",
"   %%                                                                                                                           ",
"    %%           %%                  %%             %%%          %%        %%        %%  %%       %%%                           ",
"     %%   %%%%   %%       %%%%       %%   %%%%     %%     %%%%%  %%                      %%        %%    %%  %%  %%%%%    %%%%  ",
"             %%  %%%%%   %%       %%%%%  %%  %%   %%%%%  %%  %%  %%%%%    %%%        %%  %% %%     %%    %%%%%%% %%  %%  %%  %% ",
"          %%%%%  %%  %%  %%      %%  %%  %%%%%%    %%    %%  %%  %%  %%    %%        %%  %%%%      %%    %%%%%%% %%  %%  %%  %% ",
"         %%  %%  %%  %%  %%      %%  %%  %%        %%     %%%%%  %%  %%    %%        %%  %% %%     %%    %% % %% %%  %%  %%  %% ",
"          %%%%%  %%%%%    %%%%    %%%%%   %%%%     %%        %%  %%  %%   %%%%       %%  %%  %%   %%%%   %%   %% %%  %%   %%%%  ",
"                                                         %%%%%                    %%%%                                          ",
"                                                                                           %%%            %%%                   ",
"                                   %%                                                     %%       %%       %%           %%  %% ",
" %%%%%    %%%%%  %%%%%    %%%%%  %%%%%%  %%  %%  %%  %%  %%   %% %%  %%  %%  %%  %%%%%%   %%       %%       %%                  ",
" %%  %%  %%  %%  %%  %%  %%        %%    %%  %%  %%  %%  %% % %%  %%%%   %%  %%     %%   %%        %%        %%  %%% %%  %%  %% ",
" %%  %%  %%  %%  %%       %%%%     %%    %%  %%  %%  %%  %%%%%%%   %%    %%  %%    %%     %%       %%       %%  %% %%%   %%  %% ",
" %%%%%    %%%%%  %%          %%    %%    %%  %%   %%%%    %%%%%   %%%%    %%%%%   %%      %%       %%       %%           %%  %% ",
" %%          %%  %%      %%%%%      %%%   %%%%%    %%     %% %%  %%  %%     %%   %%%%%%    %%%     %%     %%%                %% ",
" %%          %%                                                          %%%%                                             %%%%  ",

};
